M48
METRIC,LZ,000.000
;FILE_FORMAT=3:3
;TYPE=PLATED
;Layer: PTH_Through
;EasyEDA v6.5.46, 2025-06-25 09:17:09
;c32a7bcbb03645a88eb5fb473b9f6d41,a0a929ee5348484eab1505e8ec72bbe5,10
;Gerber Generator version 0.2
;Holesize 1 = 0.305 mm
T01C0.305
;Holesize 2 = 0.915 mm
T02C0.915
;Holesize 3 = 1.001 mm
T03C1.001
%
G05
G90
T01
X068109Y068704
X065090Y062875
X110045Y054458
X065006Y054260
X106648Y044577
T02
X111252Y059563
X113792Y059563
X116332Y059563
X118872Y059563
X121412Y059563
X121412Y074803
X118872Y074803
X116332Y074803
X113792Y074803
X111252Y074803
T03
X069088Y091821
X066548Y043561
X071628Y091821
X074168Y091821
X076708Y091821
X079248Y091821
X066548Y091821
X064008Y091821
X061468Y091821
X057404Y091821
X054864Y091821
X052324Y091821
X049784Y091821
X047244Y091821
X044704Y091821
X042164Y091821
X039624Y091821
X069088Y043561
X071628Y043561
X074168Y043561
X076708Y043561
X079248Y043561
X061468Y043561
X058928Y043561
X056388Y043561
X053848Y043561
X051308Y043561
X048768Y043561
M30
