G04 Layer: TopPasteMaskLayer*
G04 EasyEDA v6.5.46, 2025-06-25 09:17:09*
G04 c32a7bcbb03645a88eb5fb473b9f6d41,a0a929ee5348484eab1505e8ec72bbe5,10*
G04 Gerber Generator version 0.2*
G04 Scale: 100 percent, Rotated: No, Reflected: No *
G04 Dimensions in millimeters *
G04 leading zeros omitted , absolute positions ,4 integer and 5 decimal *
%FSLAX45Y45*%
%MOMM*%

%ADD10C,0.0001*%

%LPD*%
G36*
X9386722Y8642908D02*
G01*
X9381693Y8637879D01*
X9381693Y8615121D01*
X9418675Y8615121D01*
X9418675Y8582101D01*
X9381693Y8582101D01*
X9381693Y8557920D01*
X9386722Y8552891D01*
X9466681Y8552891D01*
X9471710Y8557920D01*
X9471710Y8637879D01*
X9466681Y8642908D01*
G37*
G36*
X9227718Y8642908D02*
G01*
X9222689Y8637879D01*
X9222689Y8557920D01*
X9227718Y8552891D01*
X9307677Y8552891D01*
X9312706Y8557920D01*
X9312706Y8580678D01*
X9275724Y8580678D01*
X9275724Y8613698D01*
X9312706Y8613698D01*
X9312706Y8637879D01*
X9307677Y8642908D01*
G37*
G36*
X9374022Y7944408D02*
G01*
X9368993Y7939379D01*
X9368993Y7916621D01*
X9405975Y7916621D01*
X9405975Y7883601D01*
X9368993Y7883601D01*
X9368993Y7859420D01*
X9374022Y7854391D01*
X9453981Y7854391D01*
X9459010Y7859420D01*
X9459010Y7939379D01*
X9453981Y7944408D01*
G37*
G36*
X9215018Y7944408D02*
G01*
X9209989Y7939379D01*
X9209989Y7859420D01*
X9215018Y7854391D01*
X9294977Y7854391D01*
X9300006Y7859420D01*
X9300006Y7882178D01*
X9263024Y7882178D01*
X9263024Y7915198D01*
X9300006Y7915198D01*
X9300006Y7939379D01*
X9294977Y7944408D01*
G37*
G36*
X9374022Y7296708D02*
G01*
X9368993Y7291679D01*
X9368993Y7268921D01*
X9405975Y7268921D01*
X9405975Y7235901D01*
X9368993Y7235901D01*
X9368993Y7211720D01*
X9374022Y7206691D01*
X9453981Y7206691D01*
X9459010Y7211720D01*
X9459010Y7291679D01*
X9453981Y7296708D01*
G37*
G36*
X9215018Y7296708D02*
G01*
X9209989Y7291679D01*
X9209989Y7211720D01*
X9215018Y7206691D01*
X9294977Y7206691D01*
X9300006Y7211720D01*
X9300006Y7234478D01*
X9263024Y7234478D01*
X9263024Y7267498D01*
X9300006Y7267498D01*
X9300006Y7291679D01*
X9294977Y7296708D01*
G37*
G36*
X9374022Y6547408D02*
G01*
X9368993Y6542379D01*
X9368993Y6519621D01*
X9405975Y6519621D01*
X9405975Y6486601D01*
X9368993Y6486601D01*
X9368993Y6462420D01*
X9374022Y6457391D01*
X9453981Y6457391D01*
X9459010Y6462420D01*
X9459010Y6542379D01*
X9453981Y6547408D01*
G37*
G36*
X9215018Y6547408D02*
G01*
X9209989Y6542379D01*
X9209989Y6462420D01*
X9215018Y6457391D01*
X9294977Y6457391D01*
X9300006Y6462420D01*
X9300006Y6485178D01*
X9263024Y6485178D01*
X9263024Y6518198D01*
X9300006Y6518198D01*
X9300006Y6542379D01*
X9294977Y6547408D01*
G37*
G36*
X9374022Y5861608D02*
G01*
X9368993Y5856579D01*
X9368993Y5833821D01*
X9405975Y5833821D01*
X9405975Y5800801D01*
X9368993Y5800801D01*
X9368993Y5776620D01*
X9374022Y5771591D01*
X9453981Y5771591D01*
X9459010Y5776620D01*
X9459010Y5856579D01*
X9453981Y5861608D01*
G37*
G36*
X9215018Y5861608D02*
G01*
X9209989Y5856579D01*
X9209989Y5776620D01*
X9215018Y5771591D01*
X9294977Y5771591D01*
X9300006Y5776620D01*
X9300006Y5799378D01*
X9263024Y5799378D01*
X9263024Y5832398D01*
X9300006Y5832398D01*
X9300006Y5856579D01*
X9294977Y5861608D01*
G37*
G36*
X9374022Y5213908D02*
G01*
X9368993Y5208879D01*
X9368993Y5186121D01*
X9405975Y5186121D01*
X9405975Y5153101D01*
X9368993Y5153101D01*
X9368993Y5128920D01*
X9374022Y5123891D01*
X9453981Y5123891D01*
X9459010Y5128920D01*
X9459010Y5208879D01*
X9453981Y5213908D01*
G37*
G36*
X9215018Y5213908D02*
G01*
X9209989Y5208879D01*
X9209989Y5128920D01*
X9215018Y5123891D01*
X9294977Y5123891D01*
X9300006Y5128920D01*
X9300006Y5151678D01*
X9263024Y5151678D01*
X9263024Y5184698D01*
X9300006Y5184698D01*
X9300006Y5208879D01*
X9294977Y5213908D01*
G37*
G36*
X9374022Y4502708D02*
G01*
X9368993Y4497679D01*
X9368993Y4474921D01*
X9405975Y4474921D01*
X9405975Y4441901D01*
X9368993Y4441901D01*
X9368993Y4417720D01*
X9374022Y4412691D01*
X9453981Y4412691D01*
X9459010Y4417720D01*
X9459010Y4497679D01*
X9453981Y4502708D01*
G37*
G36*
X9215018Y4502708D02*
G01*
X9209989Y4497679D01*
X9209989Y4417720D01*
X9215018Y4412691D01*
X9294977Y4412691D01*
X9300006Y4417720D01*
X9300006Y4440478D01*
X9263024Y4440478D01*
X9263024Y4473498D01*
X9300006Y4473498D01*
X9300006Y4497679D01*
X9294977Y4502708D01*
G37*
M02*
