G04 Layer: TopSilkscreenLayer*
G04 EasyEDA v6.5.46, 2025-06-25 09:17:09*
G04 c32a7bcbb03645a88eb5fb473b9f6d41,a0a929ee5348484eab1505e8ec72bbe5,10*
G04 Gerber Generator version 0.2*
G04 Scale: 100 percent, Rotated: No, Reflected: No *
G04 Dimensions in millimeters *
G04 leading zeros omitted , absolute positions ,4 integer and 5 decimal *
%FSLAX45Y45*%
%MOMM*%

%ADD10C,0.1524*%
%ADD11C,1.0000*%
%ADD12C,0.2540*%

%LPD*%
G36*
X11418316Y9351975D02*
G01*
X11407292Y9350959D01*
X11400129Y9349841D01*
X11395202Y9348622D01*
X11387480Y9346082D01*
X11378641Y9342882D01*
X11369852Y9339326D01*
X11355171Y9332163D01*
X11341760Y9323324D01*
X11336223Y9318802D01*
X11326520Y9309963D01*
X11323828Y9305442D01*
X11323828Y9299905D01*
X11326723Y9297009D01*
X11330889Y9295892D01*
X11334038Y9297060D01*
X11341201Y9304477D01*
X11352580Y9313570D01*
X11360607Y9319006D01*
X11374780Y9326524D01*
X11383619Y9329978D01*
X11390782Y9332214D01*
X11405108Y9335516D01*
X11417706Y9337852D01*
X11445087Y9337802D01*
X11446103Y9337192D01*
X11454130Y9336125D01*
X11459108Y9335109D01*
X11463528Y9333839D01*
X11472316Y9331807D01*
X11477802Y9330182D01*
X11487200Y9326575D01*
X11499291Y9320326D01*
X11508689Y9314535D01*
X11514175Y9310522D01*
X11520779Y9305086D01*
X11529415Y9297009D01*
X11532920Y9296095D01*
X11535816Y9297060D01*
X11538102Y9299194D01*
X11539118Y9302953D01*
X11538305Y9307525D01*
X11536222Y9309912D01*
X11525758Y9318853D01*
X11518595Y9324390D01*
X11510314Y9329877D01*
X11501729Y9335109D01*
X11490502Y9340850D01*
X11485524Y9342882D01*
X11477294Y9345015D01*
X11471198Y9345980D01*
X11462410Y9348317D01*
X11451386Y9350451D01*
X11442547Y9351568D01*
G37*
G36*
X11443055Y9305798D02*
G01*
X11419433Y9305645D01*
X11412829Y9304680D01*
X11406733Y9303461D01*
X11398504Y9301378D01*
X11392255Y9299143D01*
X11377320Y9290100D01*
X11363756Y9280550D01*
X11360353Y9276892D01*
X11359184Y9273387D01*
X11360404Y9269374D01*
X11363248Y9267393D01*
X11368836Y9266631D01*
X11378082Y9273997D01*
X11391290Y9282836D01*
X11402364Y9288068D01*
X11414455Y9290964D01*
X11431016Y9292691D01*
X11446408Y9291472D01*
X11452504Y9290253D01*
X11459108Y9288068D01*
X11470640Y9282430D01*
X11480342Y9276080D01*
X11487759Y9270339D01*
X11488318Y9269577D01*
X11493754Y9266174D01*
X11496395Y9266174D01*
X11500612Y9268510D01*
X11502491Y9272778D01*
X11501221Y9277096D01*
X11495278Y9282480D01*
X11483898Y9290253D01*
X11472316Y9297162D01*
X11463528Y9301226D01*
X11460175Y9302394D01*
X11455806Y9303512D01*
G37*
G36*
X11426037Y9263329D02*
G01*
X11419433Y9262364D01*
X11411153Y9260230D01*
X11406479Y9258554D01*
X11400231Y9254845D01*
X11393373Y9248241D01*
X11391036Y9244380D01*
X11391036Y9239910D01*
X11393881Y9237218D01*
X11398859Y9237421D01*
X11405260Y9241891D01*
X11406022Y9241891D01*
X11409019Y9244025D01*
X11415014Y9247276D01*
X11420551Y9249206D01*
X11428780Y9250680D01*
X11435384Y9250730D01*
X11443309Y9249054D01*
X11446408Y9247886D01*
X11451945Y9245193D01*
X11457533Y9240977D01*
X11463832Y9237522D01*
X11467998Y9237522D01*
X11470386Y9240062D01*
X11470386Y9244685D01*
X11469014Y9247124D01*
X11464594Y9251899D01*
X11457432Y9257233D01*
X11450269Y9260433D01*
X11442090Y9262872D01*
G37*
G36*
X11760758Y9234728D02*
G01*
X11752224Y9234220D01*
X11746128Y9232950D01*
X11736781Y9230461D01*
X11731244Y9228632D01*
X11726316Y9226651D01*
X11714226Y9220708D01*
X11707520Y9216288D01*
X11697817Y9209125D01*
X11688013Y9196476D01*
X11680748Y9186164D01*
X11675973Y9176613D01*
X11672468Y9167825D01*
X11669420Y9157970D01*
X11663273Y9170619D01*
X11653570Y9184233D01*
X11641480Y9196476D01*
X11633200Y9203131D01*
X11627916Y9206738D01*
X11619992Y9209887D01*
X11607292Y9213951D01*
X11595201Y9216999D01*
X11586870Y9218828D01*
X11583873Y9215831D01*
X11581688Y9212275D01*
X11580672Y9206941D01*
X11581347Y9201048D01*
X11595912Y9201048D01*
X11596674Y9202318D01*
X11614454Y9195511D01*
X11623852Y9191040D01*
X11633250Y9184741D01*
X11639702Y9178798D01*
X11646408Y9170974D01*
X11651843Y9161881D01*
X11656466Y9152382D01*
X11658752Y9142984D01*
X11659571Y9138056D01*
X11681968Y9138056D01*
X11681968Y9148775D01*
X11685320Y9162288D01*
X11688724Y9171127D01*
X11689537Y9172194D01*
X11696141Y9183217D01*
X11703761Y9193377D01*
X11711432Y9199778D01*
X11720271Y9206433D01*
X11727942Y9210802D01*
X11732920Y9213088D01*
X11739524Y9215323D01*
X11752478Y9218777D01*
X11752478Y9211767D01*
X11750141Y9199219D01*
X11745874Y9181033D01*
X11742064Y9170263D01*
X11739016Y9164472D01*
X11735816Y9159697D01*
X11721338Y9145168D01*
X11714734Y9140748D01*
X11709349Y9137650D01*
X11702084Y9134094D01*
X11697106Y9132874D01*
X11692991Y9132214D01*
X11692991Y9132874D01*
X11699290Y9140799D01*
X11708993Y9151569D01*
X11714175Y9158427D01*
X11724741Y9171635D01*
X11729364Y9178290D01*
X11731548Y9184335D01*
X11731548Y9188958D01*
X11729110Y9190685D01*
X11726113Y9190685D01*
X11723420Y9189618D01*
X11716410Y9180576D01*
X11713006Y9176613D01*
X11701119Y9160662D01*
X11687759Y9144101D01*
X11681968Y9138056D01*
X11659571Y9138056D01*
X11660073Y9135008D01*
X11659362Y9134297D01*
X11656466Y9136938D01*
X11648897Y9148216D01*
X11645747Y9151823D01*
X11632234Y9169755D01*
X11627104Y9174988D01*
X11621262Y9179915D01*
X11618315Y9180779D01*
X11615826Y9180169D01*
X11613642Y9176613D01*
X11613642Y9173565D01*
X11616029Y9168333D01*
X11619382Y9163964D01*
X11632742Y9150146D01*
X11644579Y9136380D01*
X11648948Y9130080D01*
X11649557Y9128404D01*
X11647373Y9128404D01*
X11641480Y9130690D01*
X11636502Y9133027D01*
X11629898Y9137396D01*
X11622176Y9143746D01*
X11617553Y9148521D01*
X11610238Y9158427D01*
X11603786Y9171635D01*
X11599875Y9185148D01*
X11595912Y9201048D01*
X11581347Y9201048D01*
X11582146Y9193682D01*
X11583263Y9188043D01*
X11589512Y9170263D01*
X11593322Y9160662D01*
X11596979Y9153499D01*
X11599418Y9149181D01*
X11603736Y9142780D01*
X11603736Y9141460D01*
X11616385Y9129014D01*
X11619687Y9127083D01*
X11619687Y9126067D01*
X11617198Y9126829D01*
X11608968Y9128252D01*
X11601246Y9126880D01*
X11592610Y9123934D01*
X11586413Y9121089D01*
X11577574Y9112148D01*
X11574068Y9105544D01*
X11571782Y9098483D01*
X11571782Y9094825D01*
X11570919Y9094825D01*
X11567972Y9096756D01*
X11562689Y9101734D01*
X11550548Y9111589D01*
X11537899Y9122460D01*
X11532920Y9127032D01*
X11529060Y9130182D01*
X11523014Y9135922D01*
X11470640Y9180017D01*
X11444782Y9203131D01*
X11437061Y9208414D01*
X11433352Y9209938D01*
X11428018Y9209938D01*
X11417554Y9203893D01*
X11416131Y9202521D01*
X11410086Y9197594D01*
X11402923Y9190786D01*
X11392408Y9181592D01*
X11268862Y9076334D01*
X11227104Y9039961D01*
X11220551Y9034475D01*
X11216132Y9030411D01*
X11212830Y9027922D01*
X11208105Y9023654D01*
X11204549Y9026093D01*
X11202060Y9028328D01*
X11156340Y9028125D01*
X11156340Y9029039D01*
X11158524Y9031071D01*
X11158575Y9066428D01*
X11157458Y9102801D01*
X11157153Y9181642D01*
X11163503Y9184640D01*
X11170666Y9191345D01*
X11173968Y9198254D01*
X11173968Y9212122D01*
X11171123Y9218320D01*
X11166551Y9223298D01*
X11160455Y9227362D01*
X11157712Y9228531D01*
X11150295Y9230004D01*
X11142827Y9228531D01*
X11137950Y9226397D01*
X11132566Y9222333D01*
X11127892Y9215170D01*
X11126419Y9210548D01*
X11126371Y9205010D01*
X11138763Y9205010D01*
X11140389Y9209684D01*
X11143437Y9213138D01*
X11147247Y9215475D01*
X11153089Y9215475D01*
X11155527Y9214205D01*
X11159185Y9210751D01*
X11160760Y9207804D01*
X11160760Y9202420D01*
X11159134Y9199219D01*
X11155527Y9195816D01*
X11151920Y9194393D01*
X11145316Y9195765D01*
X11140490Y9200032D01*
X11138763Y9205010D01*
X11126371Y9205010D01*
X11126317Y9198660D01*
X11129873Y9191396D01*
X11136223Y9184995D01*
X11142929Y9181846D01*
X11144656Y9034475D01*
X11145520Y9031732D01*
X11147602Y9028684D01*
X11146129Y9028176D01*
X11116411Y9027871D01*
X11112195Y9025788D01*
X11109096Y9021216D01*
X11108283Y9015730D01*
X11108269Y9013545D01*
X11121339Y9013545D01*
X11121542Y9014104D01*
X11196218Y9013799D01*
X11196828Y9013190D01*
X11186922Y9004554D01*
X11181435Y9000439D01*
X11168735Y8989872D01*
X11158829Y8979865D01*
X11156340Y8975140D01*
X11156340Y8969451D01*
X11157762Y8965031D01*
X11159083Y8962644D01*
X11162893Y8960307D01*
X11171478Y8958834D01*
X11184178Y8959240D01*
X11194643Y8960459D01*
X11208156Y8961018D01*
X11207851Y8837777D01*
X11161572Y8836456D01*
X11144504Y8837980D01*
X11139779Y8838996D01*
X11132769Y8842502D01*
X11126774Y8848953D01*
X11124438Y8853932D01*
X11123371Y8858707D01*
X11122050Y8874150D01*
X11121339Y9013545D01*
X11108269Y9013545D01*
X11107775Y8938615D01*
X11108994Y8866428D01*
X11110163Y8855964D01*
X11112804Y8847226D01*
X11116818Y8839962D01*
X11122456Y8833307D01*
X11126876Y8830106D01*
X11133480Y8826601D01*
X11139525Y8824772D01*
X11149990Y8823045D01*
X11207851Y8822893D01*
X11208461Y8728710D01*
X11212728Y8716568D01*
X11217910Y8708847D01*
X11226038Y8701125D01*
X11232642Y8697976D01*
X11241074Y8695944D01*
X11412067Y8695334D01*
X11419636Y8692489D01*
X11420652Y8691219D01*
X11423700Y8683498D01*
X11425224Y8676335D01*
X11425174Y8664803D01*
X11423751Y8658148D01*
X11421414Y8653221D01*
X11417401Y8648496D01*
X11412270Y8645499D01*
X11310874Y8645499D01*
X11278158Y8644483D01*
X11277041Y8647379D01*
X11270132Y8654186D01*
X11262004Y8657996D01*
X11250828Y8657640D01*
X11245392Y8654846D01*
X11239144Y8648801D01*
X11235690Y8641486D01*
X11235690Y8633612D01*
X11248898Y8633612D01*
X11248898Y8639556D01*
X11251387Y8643315D01*
X11256365Y8645702D01*
X11259261Y8645753D01*
X11263122Y8644128D01*
X11266373Y8640216D01*
X11267694Y8635898D01*
X11265458Y8631580D01*
X11262106Y8628227D01*
X11257127Y8627465D01*
X11253774Y8628126D01*
X11250523Y8630412D01*
X11248898Y8633612D01*
X11235690Y8633612D01*
X11235690Y8632291D01*
X11237315Y8626957D01*
X11240312Y8621420D01*
X11244935Y8617356D01*
X11252809Y8613800D01*
X11262563Y8613800D01*
X11267897Y8616086D01*
X11272215Y8619032D01*
X11278514Y8626551D01*
X11279225Y8630767D01*
X11281054Y8631478D01*
X11415217Y8631326D01*
X11424462Y8635949D01*
X11429390Y8640521D01*
X11432794Y8644940D01*
X11435994Y8651544D01*
X11438432Y8660485D01*
X11438432Y8679738D01*
X11436045Y8692337D01*
X11433251Y8698230D01*
X11427155Y8704529D01*
X11423294Y8706307D01*
X11416131Y8708491D01*
X11240922Y8709812D01*
X11235232Y8711946D01*
X11228222Y8718346D01*
X11225174Y8723985D01*
X11223701Y8729776D01*
X11222786Y8741359D01*
X11222685Y8957360D01*
X11220043Y8968181D01*
X11216436Y8972296D01*
X11211255Y8974328D01*
X11172190Y8973718D01*
X11179200Y8980881D01*
X11190224Y8989771D01*
X11196269Y8995460D01*
X11212271Y9008516D01*
X11218316Y9014256D01*
X11222177Y9017355D01*
X11227155Y9021978D01*
X11244783Y9037015D01*
X11253825Y9044381D01*
X11262410Y9052153D01*
X11265357Y9054388D01*
X11278920Y9066479D01*
X11283899Y9070289D01*
X11286083Y9072321D01*
X11294313Y9078518D01*
X11301222Y9085021D01*
X11308130Y9090507D01*
X11309807Y9092438D01*
X11316411Y9097416D01*
X11319713Y9100667D01*
X11326774Y9106103D01*
X11332108Y9111742D01*
X11348872Y9124848D01*
X11353850Y9129318D01*
X11366550Y9139682D01*
X11371478Y9144254D01*
X11389664Y9159544D01*
X11411559Y9178798D01*
X11421059Y9186621D01*
X11430812Y9193987D01*
X11431828Y9193987D01*
X11435943Y9190278D01*
X11463477Y9167266D01*
X11500307Y9136024D01*
X11552224Y9091168D01*
X11559981Y9084767D01*
X11584990Y9084767D01*
X11584990Y9094774D01*
X11586210Y9097822D01*
X11588546Y9102699D01*
X11593931Y9108541D01*
X11601907Y9112504D01*
X11607850Y9113977D01*
X11608968Y9114028D01*
X11616690Y9112605D01*
X11622074Y9110116D01*
X11628120Y9104426D01*
X11631117Y9100058D01*
X11633606Y9093403D01*
X11633648Y9089745D01*
X11646560Y9089745D01*
X11647119Y9097568D01*
X11653316Y9106916D01*
X11658549Y9110726D01*
X11672874Y9115094D01*
X11680596Y9115145D01*
X11686895Y9113621D01*
X11695226Y9109506D01*
X11698478Y9105595D01*
X11701627Y9098381D01*
X11702897Y9092488D01*
X11702897Y9086799D01*
X11715089Y9086799D01*
X11716105Y9091218D01*
X11716105Y9100159D01*
X11717782Y9104122D01*
X11727434Y9110522D01*
X11732361Y9112656D01*
X11737340Y9113977D01*
X11739524Y9114078D01*
X11747246Y9112605D01*
X11751614Y9110726D01*
X11755221Y9107982D01*
X11757355Y9103868D01*
X11762536Y9097264D01*
X11764670Y9092336D01*
X11764772Y9082786D01*
X11761927Y9075775D01*
X11758574Y9071203D01*
X11752224Y9066885D01*
X11745518Y9064498D01*
X11738965Y9064498D01*
X11733479Y9066022D01*
X11729059Y9068054D01*
X11723014Y9072067D01*
X11720576Y9074708D01*
X11716715Y9081160D01*
X11715089Y9086799D01*
X11702897Y9086799D01*
X11702897Y9083649D01*
X11699494Y9076588D01*
X11691620Y9068562D01*
X11686184Y9065412D01*
X11680139Y9063380D01*
X11670131Y9063431D01*
X11665153Y9064802D01*
X11659717Y9067546D01*
X11653418Y9073591D01*
X11652199Y9078569D01*
X11650726Y9081312D01*
X11649456Y9081058D01*
X11647982Y9083497D01*
X11646560Y9089745D01*
X11633648Y9089745D01*
X11633758Y9084513D01*
X11632133Y9081312D01*
X11626443Y9072422D01*
X11621973Y9068409D01*
X11617350Y9066072D01*
X11612270Y9064498D01*
X11607190Y9064498D01*
X11593525Y9075928D01*
X11584990Y9084767D01*
X11559981Y9084767D01*
X11562689Y9082532D01*
X11572036Y9073591D01*
X11578640Y9068054D01*
X11592407Y9057233D01*
X11599840Y9050528D01*
X11621211Y9050528D01*
X11633454Y9060230D01*
X11638686Y9061653D01*
X11644223Y9061754D01*
X11650827Y9058554D01*
X11657431Y9053525D01*
X11665051Y9049918D01*
X11667185Y9045803D01*
X11668709Y9039961D01*
X11668712Y9032544D01*
X11680698Y9032544D01*
X11681409Y9036100D01*
X11684355Y9045498D01*
X11686743Y9049918D01*
X11700916Y9059519D01*
X11702643Y9061246D01*
X11715394Y9060891D01*
X11724081Y9056522D01*
X11730351Y9050375D01*
X11745315Y9050375D01*
X11746687Y9051239D01*
X11749328Y9051290D01*
X11753850Y9052509D01*
X11758523Y9054592D01*
X11759133Y9054592D01*
X11765483Y9058859D01*
X11766956Y9060637D01*
X11768226Y9060637D01*
X11774017Y9056827D01*
X11778437Y9052204D01*
X11781028Y9048800D01*
X11783110Y9044940D01*
X11785549Y9036812D01*
X11785498Y9031173D01*
X11783974Y9024823D01*
X11781078Y9019895D01*
X11773712Y9014053D01*
X11770360Y9011716D01*
X11765076Y9009938D01*
X11763197Y9010954D01*
X11755526Y9016695D01*
X11749684Y9019336D01*
X11746484Y9019336D01*
X11745925Y9020200D01*
X11748058Y9026652D01*
X11748058Y9040418D01*
X11745315Y9050375D01*
X11730351Y9050375D01*
X11731396Y9049359D01*
X11735104Y9041638D01*
X11735104Y9029496D01*
X11733072Y9023096D01*
X11729415Y9017660D01*
X11724081Y9012072D01*
X11719458Y9009329D01*
X11713667Y9007195D01*
X11705945Y9007246D01*
X11699646Y9008719D01*
X11693448Y9011767D01*
X11688368Y9016847D01*
X11683238Y9024670D01*
X11680698Y9032544D01*
X11668712Y9032544D01*
X11668760Y9025890D01*
X11667236Y9022334D01*
X11661648Y9017101D01*
X11659362Y9017101D01*
X11649354Y9026194D01*
X11621211Y9050528D01*
X11599840Y9050528D01*
X11615013Y9036100D01*
X11625478Y9028277D01*
X11629644Y9025534D01*
X11637060Y9018473D01*
X11645849Y9010751D01*
X11652809Y9005620D01*
X11672062Y9005620D01*
X11672062Y9006586D01*
X11676735Y9009278D01*
X11677294Y9009380D01*
X11683339Y9003284D01*
X11688927Y8999575D01*
X11695480Y8996019D01*
X11700560Y8992362D01*
X11701221Y8985453D01*
X11701887Y8980932D01*
X11714886Y8980932D01*
X11716359Y8989009D01*
X11720271Y8994241D01*
X11728145Y8998204D01*
X11736781Y9004808D01*
X11738965Y9006078D01*
X11743944Y9006078D01*
X11749836Y9003944D01*
X11755932Y8999270D01*
X11760809Y8993276D01*
X11763603Y8988501D01*
X11763197Y8972753D01*
X11759742Y8965387D01*
X11755170Y8960459D01*
X11747804Y8957513D01*
X11745671Y8956395D01*
X11735003Y8956446D01*
X11729059Y8959088D01*
X11722049Y8964422D01*
X11718747Y8968892D01*
X11716308Y8974429D01*
X11714886Y8980932D01*
X11701887Y8980932D01*
X11701932Y8980627D01*
X11700713Y8981033D01*
X11683390Y8996984D01*
X11676126Y9003131D01*
X11672062Y9005620D01*
X11652809Y9005620D01*
X11664594Y8995765D01*
X11678412Y8982659D01*
X11688572Y8974429D01*
X11684965Y8973616D01*
X11659412Y8973667D01*
X11652504Y8972905D01*
X11647627Y8971330D01*
X11644731Y8969654D01*
X11642445Y8966149D01*
X11641603Y8958986D01*
X11655196Y8958986D01*
X11655602Y8959900D01*
X11695734Y8959545D01*
X11695734Y8958935D01*
X11691620Y8954465D01*
X11686641Y8951214D01*
X11683339Y8949944D01*
X11680037Y8949334D01*
X11667947Y8948877D01*
X11655602Y8952230D01*
X11655196Y8958986D01*
X11641603Y8958986D01*
X11641612Y8936888D01*
X11655602Y8936888D01*
X11656161Y8937853D01*
X11658549Y8937142D01*
X11667337Y8935262D01*
X11667432Y8932113D01*
X11680748Y8932113D01*
X11681104Y8935110D01*
X11689943Y8938158D01*
X11697106Y8941308D01*
X11700408Y8943543D01*
X11702643Y8945778D01*
X11707063Y8951264D01*
X11708638Y8954566D01*
X11709654Y8955938D01*
X11718036Y8948166D01*
X11726011Y8943746D01*
X11726011Y8936177D01*
X11724843Y8930335D01*
X11723624Y8927033D01*
X11720068Y8921546D01*
X11715851Y8917432D01*
X11709247Y8914485D01*
X11697106Y8914384D01*
X11693245Y8915958D01*
X11687352Y8919768D01*
X11683187Y8925407D01*
X11680748Y8932113D01*
X11667432Y8932113D01*
X11667693Y8925052D01*
X11665254Y8921546D01*
X11657584Y8914079D01*
X11656822Y8914079D01*
X11655602Y8936888D01*
X11641612Y8936888D01*
X11641988Y8876893D01*
X11641988Y8770569D01*
X11641124Y8730894D01*
X11639956Y8725408D01*
X11636400Y8717686D01*
X11632895Y8713317D01*
X11627713Y8709863D01*
X11623294Y8708339D01*
X11509806Y8708694D01*
X11498783Y8707374D01*
X11491010Y8703665D01*
X11485219Y8697569D01*
X11481816Y8690356D01*
X11480800Y8686241D01*
X11479072Y8677452D01*
X11479733Y8637219D01*
X11481511Y8631275D01*
X11481082Y8628329D01*
X11590477Y8628329D01*
X11590477Y8634018D01*
X11592966Y8637778D01*
X11597944Y8640216D01*
X11600688Y8640216D01*
X11605666Y8637727D01*
X11608104Y8632850D01*
X11608104Y8629040D01*
X11605869Y8624366D01*
X11600891Y8621928D01*
X11595862Y8622487D01*
X11592966Y8624671D01*
X11590477Y8628329D01*
X11481082Y8628329D01*
X11479682Y8616848D01*
X11480190Y8599779D01*
X11480901Y8597544D01*
X11472468Y8593683D01*
X11467185Y8587943D01*
X11464747Y8581593D01*
X11464682Y8573820D01*
X11478514Y8573820D01*
X11478514Y8577935D01*
X11480647Y8581593D01*
X11484305Y8584082D01*
X11491061Y8584031D01*
X11496243Y8580221D01*
X11498021Y8576767D01*
X11496649Y8571687D01*
X11493449Y8566962D01*
X11489537Y8565337D01*
X11486642Y8565337D01*
X11482781Y8567674D01*
X11480241Y8570569D01*
X11478514Y8573820D01*
X11464682Y8573820D01*
X11464645Y8569452D01*
X11468201Y8562797D01*
X11472316Y8558530D01*
X11478768Y8554364D01*
X11484762Y8552129D01*
X11489385Y8552129D01*
X11495684Y8553653D01*
X11501628Y8556599D01*
X11506708Y8561628D01*
X11508841Y8566200D01*
X11511178Y8573211D01*
X11511127Y8579916D01*
X11509756Y8584336D01*
X11507419Y8588756D01*
X11501018Y8595817D01*
X11495125Y8598408D01*
X11493652Y8598408D01*
X11493042Y8619591D01*
X11492331Y8623757D01*
X11577421Y8624011D01*
X11579199Y8619286D01*
X11586921Y8613140D01*
X11592966Y8610346D01*
X11604650Y8610396D01*
X11612829Y8614156D01*
X11617960Y8619236D01*
X11621516Y8626195D01*
X11621516Y8636152D01*
X11618772Y8642197D01*
X11613794Y8648293D01*
X11609222Y8651443D01*
X11602974Y8653475D01*
X11594388Y8653475D01*
X11591340Y8652154D01*
X11583060Y8646718D01*
X11579910Y8643315D01*
X11576608Y8637524D01*
X11493093Y8637625D01*
X11492687Y8637778D01*
X11493093Y8640013D01*
X11493855Y8682431D01*
X11495074Y8685834D01*
X11496903Y8689746D01*
X11503152Y8693048D01*
X11512448Y8694267D01*
X11621566Y8694267D01*
X11628221Y8695486D01*
X11634317Y8697772D01*
X11639753Y8700973D01*
X11645087Y8705646D01*
X11649506Y8711488D01*
X11652046Y8717127D01*
X11654282Y8723731D01*
X11655501Y8729218D01*
X11656618Y8778849D01*
X11656618Y8899398D01*
X11657990Y8900312D01*
X11659311Y8900312D01*
X11665000Y8903665D01*
X11671198Y8907932D01*
X11673636Y8910218D01*
X11674703Y8912098D01*
X11681307Y8906002D01*
X11688267Y8902598D01*
X11694363Y8900464D01*
X11703354Y8899042D01*
X11711432Y8900414D01*
X11718036Y8902649D01*
X11724640Y8906103D01*
X11732463Y8913825D01*
X11736933Y8923172D01*
X11738051Y8926017D01*
X11739372Y8934348D01*
X11738152Y8941308D01*
X11738660Y8941765D01*
X11747957Y8942171D01*
X11753850Y8943695D01*
X11757863Y8945372D01*
X11764162Y8949385D01*
X11769496Y8954363D01*
X11774017Y8961323D01*
X11776303Y8967825D01*
X11777827Y8974988D01*
X11777827Y8985554D01*
X11775440Y8993682D01*
X11773458Y8997848D01*
X11780977Y9001607D01*
X11789918Y9008364D01*
X11792051Y9011412D01*
X11795861Y9019032D01*
X11797538Y9025128D01*
X11798757Y9032392D01*
X11798757Y9037015D01*
X11796471Y9047683D01*
X11795201Y9051544D01*
X11791950Y9057589D01*
X11786819Y9064244D01*
X11780316Y9068866D01*
X11775643Y9071102D01*
X11775643Y9071660D01*
X11777675Y9076334D01*
X11778945Y9080855D01*
X11778945Y9091523D01*
X11776710Y9099854D01*
X11773509Y9106865D01*
X11769953Y9112148D01*
X11763756Y9118600D01*
X11757710Y9122714D01*
X11752630Y9125051D01*
X11745061Y9127490D01*
X11732361Y9127439D01*
X11725757Y9125000D01*
X11716461Y9120479D01*
X11709349Y9115094D01*
X11706199Y9118142D01*
X11706199Y9118955D01*
X11717477Y9124594D01*
X11725198Y9130436D01*
X11732158Y9135110D01*
X11746026Y9149080D01*
X11751411Y9157055D01*
X11755120Y9164472D01*
X11759641Y9176054D01*
X11763349Y9188196D01*
X11766854Y9205264D01*
X11767058Y9229496D01*
X11764416Y9233204D01*
G37*
G36*
X11434521Y9073337D02*
G01*
X11427155Y9073235D01*
X11414455Y9067393D01*
X11389969Y9055658D01*
X11389512Y9055658D01*
X11380317Y9051442D01*
X11364874Y9044838D01*
X11353292Y9040317D01*
X11336782Y9034881D01*
X11319713Y9029700D01*
X11308130Y9026601D01*
X11299494Y9023654D01*
X11292382Y9020403D01*
X11291316Y9020403D01*
X11286642Y9018219D01*
X11285118Y9015831D01*
X11284610Y9010243D01*
X11284051Y8994241D01*
X11285152Y8896705D01*
X11298428Y8896705D01*
X11298783Y9008973D01*
X11311991Y9012834D01*
X11314176Y9013698D01*
X11319713Y9015018D01*
X11348923Y9023858D01*
X11372240Y9031884D01*
X11381130Y9035846D01*
X11381638Y9035846D01*
X11387480Y9038488D01*
X11396268Y9041993D01*
X11412270Y9049613D01*
X11419433Y9053576D01*
X11430965Y9059519D01*
X11431574Y9059519D01*
X11435384Y9056979D01*
X11439855Y9055252D01*
X11456873Y9047327D01*
X11462359Y9045143D01*
X11468201Y9042450D01*
X11468760Y9042450D01*
X11486642Y9035186D01*
X11495176Y9031427D01*
X11496294Y9031427D01*
X11498224Y9030462D01*
X11520779Y9022029D01*
X11542826Y9014917D01*
X11563908Y9008973D01*
X11565128Y9008262D01*
X11564620Y8906103D01*
X11563502Y8887917D01*
X11561368Y8870238D01*
X11559438Y8860942D01*
X11548516Y8839962D01*
X11543131Y8832037D01*
X11532819Y8819032D01*
X11525199Y8811310D01*
X11508689Y8796934D01*
X11494922Y8785961D01*
X11479733Y8775242D01*
X11478920Y8775242D01*
X11478615Y8874556D01*
X11481054Y8877147D01*
X11482019Y8877147D01*
X11508130Y8895029D01*
X11513312Y8899245D01*
X11516410Y8905544D01*
X11516766Y8923528D01*
X11523472Y8926322D01*
X11528399Y8930894D01*
X11530939Y8934907D01*
X11533174Y8941816D01*
X11533174Y8949537D01*
X11530838Y8956243D01*
X11527790Y8960662D01*
X11523014Y8965285D01*
X11515293Y8968790D01*
X11504269Y8968841D01*
X11497106Y8965488D01*
X11491569Y8960459D01*
X11488420Y8954770D01*
X11486946Y8949080D01*
X11486905Y8945067D01*
X11499951Y8945067D01*
X11501272Y8950198D01*
X11504320Y8953957D01*
X11508130Y8955328D01*
X11511584Y8955430D01*
X11515598Y8953754D01*
X11518747Y8950452D01*
X11520119Y8945524D01*
X11518696Y8941917D01*
X11515293Y8938209D01*
X11512296Y8936685D01*
X11507571Y8936685D01*
X11504269Y8938717D01*
X11501374Y8941663D01*
X11499951Y8945067D01*
X11486905Y8945067D01*
X11488420Y8937396D01*
X11490452Y8933078D01*
X11496294Y8927388D01*
X11503558Y8923883D01*
X11502898Y8919057D01*
X11502186Y8908491D01*
X11494363Y8902649D01*
X11477040Y8891219D01*
X11469725Y8886799D01*
X11466576Y8883802D01*
X11464747Y8879636D01*
X11465306Y8799220D01*
X11464340Y8767368D01*
X11463782Y8765540D01*
X11459108Y8763457D01*
X11439042Y8749893D01*
X11438382Y8749893D01*
X11438534Y8972296D01*
X11439245Y8973362D01*
X11445595Y8976410D01*
X11451386Y8981694D01*
X11454841Y8988755D01*
X11456263Y8996172D01*
X11454892Y9003588D01*
X11453622Y9007703D01*
X11449151Y9014053D01*
X11443970Y9017965D01*
X11438686Y9019946D01*
X11432895Y9021521D01*
X11428933Y9021521D01*
X11424361Y9020302D01*
X11416842Y9016949D01*
X11411254Y9011310D01*
X11407851Y9004147D01*
X11407592Y8993936D01*
X11420805Y8993936D01*
X11420805Y8999524D01*
X11422380Y9002522D01*
X11426037Y9005976D01*
X11428222Y9007144D01*
X11434114Y9007195D01*
X11436502Y9005976D01*
X11440160Y9002522D01*
X11441734Y8999524D01*
X11441734Y8993378D01*
X11440160Y8990380D01*
X11437061Y8987637D01*
X11434572Y8986266D01*
X11429034Y8986266D01*
X11425478Y8988044D01*
X11422380Y8990939D01*
X11420805Y8993936D01*
X11407592Y8993936D01*
X11407495Y8990736D01*
X11411051Y8983218D01*
X11418366Y8976055D01*
X11424920Y8972753D01*
X11425224Y8750960D01*
X11414709Y8757056D01*
X11414099Y8757056D01*
X11409324Y8760358D01*
X11408816Y8760358D01*
X11401552Y8764778D01*
X11400586Y8764778D01*
X11398859Y8766708D01*
X11398707Y8878570D01*
X11397437Y8882938D01*
X11392357Y8887917D01*
X11389106Y8889593D01*
X11380317Y8894978D01*
X11368125Y8903411D01*
X11361318Y8908846D01*
X11361318Y8924544D01*
X11364874Y8926372D01*
X11370716Y8930690D01*
X11373866Y8935059D01*
X11375542Y8940800D01*
X11376812Y8947200D01*
X11375491Y8952941D01*
X11372037Y8959494D01*
X11367617Y8964015D01*
X11364315Y8966301D01*
X11357356Y8968740D01*
X11346129Y8968333D01*
X11339525Y8965082D01*
X11334038Y8959545D01*
X11331651Y8954566D01*
X11330381Y8950553D01*
X11330381Y8944203D01*
X11343690Y8944203D01*
X11343690Y8948115D01*
X11345214Y8951823D01*
X11347246Y8953601D01*
X11350548Y8955379D01*
X11354612Y8955430D01*
X11359489Y8953296D01*
X11361775Y8950401D01*
X11363045Y8946489D01*
X11362385Y8943136D01*
X11360048Y8939377D01*
X11355832Y8936685D01*
X11350802Y8936685D01*
X11346383Y8939631D01*
X11343690Y8944203D01*
X11330381Y8944203D01*
X11330381Y8939530D01*
X11334038Y8932164D01*
X11340744Y8925864D01*
X11346992Y8923324D01*
X11346992Y8906205D01*
X11348313Y8901684D01*
X11354968Y8895029D01*
X11379200Y8878519D01*
X11381943Y8877096D01*
X11384330Y8875268D01*
X11385499Y8825128D01*
X11385397Y8775192D01*
X11383924Y8775750D01*
X11370411Y8784742D01*
X11361369Y8791752D01*
X11359946Y8793175D01*
X11354714Y8797340D01*
X11353292Y8798712D01*
X11342014Y8807805D01*
X11325656Y8824010D01*
X11319611Y8831732D01*
X11313972Y8840114D01*
X11311178Y8844940D01*
X11306352Y8854846D01*
X11303050Y8865311D01*
X11301882Y8869730D01*
X11299596Y8880906D01*
X11298428Y8896705D01*
X11285152Y8896705D01*
X11285321Y8882430D01*
X11286388Y8870289D01*
X11287607Y8864244D01*
X11290757Y8854135D01*
X11294110Y8846820D01*
X11294110Y8845651D01*
X11298326Y8836609D01*
X11306403Y8824569D01*
X11320170Y8807704D01*
X11341862Y8789111D01*
X11373104Y8765692D01*
X11388344Y8755481D01*
X11397386Y8750554D01*
X11421618Y8735974D01*
X11428476Y8732824D01*
X11434216Y8732824D01*
X11440922Y8735212D01*
X11449151Y8739581D01*
X11459108Y8745626D01*
X11485727Y8762441D01*
X11486692Y8762847D01*
X11496852Y8770010D01*
X11518239Y8786012D01*
X11535308Y8800592D01*
X11546230Y8811310D01*
X11550548Y8817559D01*
X11558320Y8827871D01*
X11564924Y8838895D01*
X11570817Y8850985D01*
X11573814Y8858199D01*
X11577167Y8871407D01*
X11578386Y8880754D01*
X11579199Y9001404D01*
X11578234Y9015171D01*
X11576202Y9018066D01*
X11572595Y9019438D01*
X11565890Y9022588D01*
X11559895Y9024772D01*
X11541760Y9029852D01*
X11521846Y9036304D01*
X11513108Y9039809D01*
X11502288Y9044686D01*
X11501831Y9044686D01*
X11494617Y9047988D01*
X11494109Y9047988D01*
X11487200Y9051137D01*
X11482222Y9052814D01*
X11470640Y9057436D01*
X11464848Y9060078D01*
X11464340Y9060078D01*
G37*
D10*
X9347200Y8814815D02*
G01*
X9347200Y8705850D01*
X9347200Y8814815D02*
G01*
X9393936Y8814815D01*
X9409429Y8809736D01*
X9414763Y8804402D01*
X9419843Y8793987D01*
X9419843Y8783574D01*
X9414763Y8773160D01*
X9409429Y8768079D01*
X9393936Y8763000D01*
X9347200Y8763000D01*
X9383522Y8763000D02*
G01*
X9419843Y8705850D01*
X9454134Y8793987D02*
G01*
X9464547Y8799321D01*
X9480295Y8814815D01*
X9480295Y8705850D01*
X9334500Y8116315D02*
G01*
X9334500Y8007350D01*
X9334500Y8116315D02*
G01*
X9381236Y8116315D01*
X9396729Y8111236D01*
X9402063Y8105902D01*
X9407143Y8095487D01*
X9407143Y8085073D01*
X9402063Y8074660D01*
X9396729Y8069579D01*
X9381236Y8064500D01*
X9334500Y8064500D01*
X9370822Y8064500D02*
G01*
X9407143Y8007350D01*
X9446768Y8090408D02*
G01*
X9446768Y8095487D01*
X9451847Y8105902D01*
X9457181Y8111236D01*
X9467595Y8116315D01*
X9488170Y8116315D01*
X9498584Y8111236D01*
X9503918Y8105902D01*
X9508997Y8095487D01*
X9508997Y8085073D01*
X9503918Y8074660D01*
X9493504Y8059165D01*
X9441434Y8007350D01*
X9514331Y8007350D01*
X9334500Y7468615D02*
G01*
X9334500Y7359650D01*
X9334500Y7468615D02*
G01*
X9381236Y7468615D01*
X9396729Y7463536D01*
X9402063Y7458202D01*
X9407143Y7447787D01*
X9407143Y7437373D01*
X9402063Y7426960D01*
X9396729Y7421879D01*
X9381236Y7416800D01*
X9334500Y7416800D01*
X9370822Y7416800D02*
G01*
X9407143Y7359650D01*
X9451847Y7468615D02*
G01*
X9508997Y7468615D01*
X9478009Y7426960D01*
X9493504Y7426960D01*
X9503918Y7421879D01*
X9508997Y7416800D01*
X9514331Y7401052D01*
X9514331Y7390637D01*
X9508997Y7375144D01*
X9498584Y7364729D01*
X9483090Y7359650D01*
X9467595Y7359650D01*
X9451847Y7364729D01*
X9446768Y7369810D01*
X9441434Y7380223D01*
X9334500Y6719315D02*
G01*
X9334500Y6610350D01*
X9334500Y6719315D02*
G01*
X9381236Y6719315D01*
X9396729Y6714236D01*
X9402063Y6708902D01*
X9407143Y6698487D01*
X9407143Y6688073D01*
X9402063Y6677660D01*
X9396729Y6672579D01*
X9381236Y6667500D01*
X9334500Y6667500D01*
X9370822Y6667500D02*
G01*
X9407143Y6610350D01*
X9493504Y6719315D02*
G01*
X9441434Y6646671D01*
X9519411Y6646671D01*
X9493504Y6719315D02*
G01*
X9493504Y6610350D01*
X9334500Y6033515D02*
G01*
X9334500Y5924550D01*
X9334500Y6033515D02*
G01*
X9381236Y6033515D01*
X9396729Y6028436D01*
X9402063Y6023102D01*
X9407143Y6012687D01*
X9407143Y6002273D01*
X9402063Y5991860D01*
X9396729Y5986779D01*
X9381236Y5981700D01*
X9334500Y5981700D01*
X9370822Y5981700D02*
G01*
X9407143Y5924550D01*
X9503918Y6033515D02*
G01*
X9451847Y6033515D01*
X9446768Y5986779D01*
X9451847Y5991860D01*
X9467595Y5997194D01*
X9483090Y5997194D01*
X9498584Y5991860D01*
X9508997Y5981700D01*
X9514331Y5965952D01*
X9514331Y5955537D01*
X9508997Y5940044D01*
X9498584Y5929629D01*
X9483090Y5924550D01*
X9467595Y5924550D01*
X9451847Y5929629D01*
X9446768Y5934710D01*
X9441434Y5945123D01*
X9334500Y5385815D02*
G01*
X9334500Y5276850D01*
X9334500Y5385815D02*
G01*
X9381236Y5385815D01*
X9396729Y5380736D01*
X9402063Y5375402D01*
X9407143Y5364987D01*
X9407143Y5354573D01*
X9402063Y5344160D01*
X9396729Y5339079D01*
X9381236Y5334000D01*
X9334500Y5334000D01*
X9370822Y5334000D02*
G01*
X9407143Y5276850D01*
X9503918Y5370321D02*
G01*
X9498584Y5380736D01*
X9483090Y5385815D01*
X9472675Y5385815D01*
X9457181Y5380736D01*
X9446768Y5364987D01*
X9441434Y5339079D01*
X9441434Y5313171D01*
X9446768Y5292344D01*
X9457181Y5281929D01*
X9472675Y5276850D01*
X9478009Y5276850D01*
X9493504Y5281929D01*
X9503918Y5292344D01*
X9508997Y5307837D01*
X9508997Y5313171D01*
X9503918Y5328665D01*
X9493504Y5339079D01*
X9478009Y5344160D01*
X9472675Y5344160D01*
X9457181Y5339079D01*
X9446768Y5328665D01*
X9441434Y5313171D01*
X9334500Y4674615D02*
G01*
X9334500Y4565650D01*
X9334500Y4674615D02*
G01*
X9381236Y4674615D01*
X9396729Y4669536D01*
X9402063Y4664202D01*
X9407143Y4653787D01*
X9407143Y4643373D01*
X9402063Y4632960D01*
X9396729Y4627879D01*
X9381236Y4622800D01*
X9334500Y4622800D01*
X9370822Y4622800D02*
G01*
X9407143Y4565650D01*
X9514331Y4674615D02*
G01*
X9462261Y4565650D01*
X9441434Y4674615D02*
G01*
X9514331Y4674615D01*
X11680443Y7808721D02*
G01*
X11670029Y7819136D01*
X11654536Y7824215D01*
X11633708Y7824215D01*
X11618213Y7819136D01*
X11607800Y7808721D01*
X11607800Y7798308D01*
X11612879Y7787894D01*
X11618213Y7782560D01*
X11628627Y7777479D01*
X11659870Y7767065D01*
X11670029Y7761986D01*
X11675363Y7756652D01*
X11680443Y7746237D01*
X11680443Y7730744D01*
X11670029Y7720329D01*
X11654536Y7715250D01*
X11633708Y7715250D01*
X11618213Y7720329D01*
X11607800Y7730744D01*
X11714734Y7824215D02*
G01*
X11714734Y7715250D01*
X11714734Y7824215D02*
G01*
X11782297Y7824215D01*
X11714734Y7772400D02*
G01*
X11756390Y7772400D01*
X11714734Y7715250D02*
G01*
X11782297Y7715250D01*
X11894565Y7798308D02*
G01*
X11889486Y7808721D01*
X11879072Y7819136D01*
X11868658Y7824215D01*
X11847829Y7824215D01*
X11837415Y7819136D01*
X11827002Y7808721D01*
X11821922Y7798308D01*
X11816588Y7782560D01*
X11816588Y7756652D01*
X11821922Y7741158D01*
X11827002Y7730744D01*
X11837415Y7720329D01*
X11847829Y7715250D01*
X11868658Y7715250D01*
X11879072Y7720329D01*
X11889486Y7730744D01*
X11894565Y7741158D01*
X11894565Y7756652D01*
X11868658Y7756652D02*
G01*
X11894565Y7756652D01*
X11928856Y7803387D02*
G01*
X11939270Y7808721D01*
X11954763Y7824215D01*
X11954763Y7715250D01*
X4673600Y9576815D02*
G01*
X4673600Y9498837D01*
X4678679Y9483344D01*
X4689093Y9472929D01*
X4704841Y9467850D01*
X4715256Y9467850D01*
X4730750Y9472929D01*
X4741163Y9483344D01*
X4746243Y9498837D01*
X4746243Y9576815D01*
X4785868Y9550908D02*
G01*
X4785868Y9555987D01*
X4790947Y9566402D01*
X4796281Y9571736D01*
X4806695Y9576815D01*
X4827270Y9576815D01*
X4837684Y9571736D01*
X4843018Y9566402D01*
X4848097Y9555987D01*
X4848097Y9545574D01*
X4843018Y9535160D01*
X4832604Y9519665D01*
X4780534Y9467850D01*
X4853431Y9467850D01*
X4699000Y4510786D02*
G01*
X4699000Y4462271D01*
X4699000Y4510786D02*
G01*
X4719827Y4510786D01*
X4726686Y4508500D01*
X4728972Y4506213D01*
X4731258Y4501642D01*
X4731258Y4497070D01*
X4728972Y4492244D01*
X4726686Y4489957D01*
X4719827Y4487671D01*
X4699000Y4487671D01*
X4715256Y4487671D02*
G01*
X4731258Y4462271D01*
X4779009Y4503928D02*
G01*
X4774184Y4508500D01*
X4767325Y4510786D01*
X4758181Y4510786D01*
X4751070Y4508500D01*
X4746497Y4503928D01*
X4746497Y4499355D01*
X4748784Y4494529D01*
X4751070Y4492244D01*
X4755895Y4489957D01*
X4769611Y4485386D01*
X4774184Y4483100D01*
X4776470Y4480813D01*
X4779009Y4476242D01*
X4779009Y4469129D01*
X4774184Y4464557D01*
X4767325Y4462271D01*
X4758181Y4462271D01*
X4751070Y4464557D01*
X4746497Y4469129D01*
X4810252Y4510786D02*
G01*
X4810252Y4462271D01*
X4794250Y4510786D02*
G01*
X4826508Y4510786D01*
X5054091Y4510786D02*
G01*
X5079491Y4510786D01*
X5065775Y4492244D01*
X5072634Y4492244D01*
X5077206Y4489957D01*
X5079491Y4487671D01*
X5081777Y4480813D01*
X5081777Y4476242D01*
X5079491Y4469129D01*
X5074920Y4464557D01*
X5068061Y4462271D01*
X5060950Y4462271D01*
X5054091Y4464557D01*
X5051806Y4466844D01*
X5049520Y4471670D01*
X5097018Y4494529D02*
G01*
X5110988Y4462271D01*
X5124704Y4494529D02*
G01*
X5110988Y4462271D01*
X5356606Y4510786D02*
G01*
X5333491Y4510786D01*
X5331206Y4489957D01*
X5333491Y4492244D01*
X5340350Y4494529D01*
X5347461Y4494529D01*
X5354320Y4492244D01*
X5358891Y4487671D01*
X5361177Y4480813D01*
X5361177Y4476242D01*
X5358891Y4469129D01*
X5354320Y4464557D01*
X5347461Y4462271D01*
X5340350Y4462271D01*
X5333491Y4464557D01*
X5331206Y4466844D01*
X5328920Y4471670D01*
X5376418Y4494529D02*
G01*
X5390388Y4462271D01*
X5404104Y4494529D02*
G01*
X5390388Y4462271D01*
X5686043Y4499355D02*
G01*
X5683758Y4503928D01*
X5679186Y4508500D01*
X5674613Y4510786D01*
X5665470Y4510786D01*
X5660643Y4508500D01*
X5656072Y4503928D01*
X5653786Y4499355D01*
X5651500Y4492244D01*
X5651500Y4480813D01*
X5653786Y4473955D01*
X5656072Y4469129D01*
X5660643Y4464557D01*
X5665470Y4462271D01*
X5674613Y4462271D01*
X5679186Y4464557D01*
X5683758Y4469129D01*
X5686043Y4473955D01*
X5686043Y4480813D01*
X5674613Y4480813D02*
G01*
X5686043Y4480813D01*
X5701284Y4494529D02*
G01*
X5701284Y4462271D01*
X5701284Y4485386D02*
G01*
X5708395Y4492244D01*
X5712968Y4494529D01*
X5719825Y4494529D01*
X5724397Y4492244D01*
X5726684Y4485386D01*
X5726684Y4462271D01*
X5769609Y4510786D02*
G01*
X5769609Y4462271D01*
X5769609Y4487671D02*
G01*
X5765038Y4492244D01*
X5760465Y4494529D01*
X5753608Y4494529D01*
X5749036Y4492244D01*
X5744209Y4487671D01*
X5741924Y4480813D01*
X5741924Y4476242D01*
X5744209Y4469129D01*
X5749036Y4464557D01*
X5753608Y4462271D01*
X5760465Y4462271D01*
X5765038Y4464557D01*
X5769609Y4469129D01*
X6052820Y4510786D02*
G01*
X6071361Y4462271D01*
X6089650Y4510786D02*
G01*
X6071361Y4462271D01*
X6104890Y4510786D02*
G01*
X6107429Y4508500D01*
X6109715Y4510786D01*
X6107429Y4513071D01*
X6104890Y4510786D01*
X6107429Y4494529D02*
G01*
X6107429Y4462271D01*
X6124956Y4494529D02*
G01*
X6124956Y4462271D01*
X6124956Y4485386D02*
G01*
X6131813Y4492244D01*
X6136386Y4494529D01*
X6143243Y4494529D01*
X6148070Y4492244D01*
X6150356Y4485386D01*
X6150356Y4462271D01*
X7003541Y4175505D02*
G01*
X6985000Y4126992D01*
X7003541Y4175505D02*
G01*
X7021829Y4126992D01*
X6991858Y4143247D02*
G01*
X7014972Y4143247D01*
X7037070Y4159250D02*
G01*
X7037070Y4126992D01*
X7037070Y4150105D02*
G01*
X7044181Y4156963D01*
X7048754Y4159250D01*
X7055611Y4159250D01*
X7060184Y4156963D01*
X7062470Y4150105D01*
X7062470Y4126992D01*
X7105650Y4159250D02*
G01*
X7105650Y4126992D01*
X7105650Y4152392D02*
G01*
X7100824Y4156963D01*
X7096252Y4159250D01*
X7089393Y4159250D01*
X7084822Y4156963D01*
X7080250Y4152392D01*
X7077709Y4145534D01*
X7077709Y4140962D01*
X7080250Y4133850D01*
X7084822Y4129278D01*
X7089393Y4126992D01*
X7096252Y4126992D01*
X7100824Y4129278D01*
X7105650Y4133850D01*
X7120890Y4175505D02*
G01*
X7120890Y4126992D01*
X7147559Y4159250D02*
G01*
X7142988Y4156963D01*
X7138415Y4152392D01*
X7136129Y4145534D01*
X7136129Y4140962D01*
X7138415Y4133850D01*
X7142988Y4129278D01*
X7147559Y4126992D01*
X7154418Y4126992D01*
X7158990Y4129278D01*
X7163815Y4133850D01*
X7166102Y4140962D01*
X7166102Y4145534D01*
X7163815Y4152392D01*
X7158990Y4156963D01*
X7154418Y4159250D01*
X7147559Y4159250D01*
X7209027Y4159250D02*
G01*
X7209027Y4122420D01*
X7206741Y4115562D01*
X7204456Y4113276D01*
X7199629Y4110989D01*
X7192772Y4110989D01*
X7188200Y4113276D01*
X7209027Y4152392D02*
G01*
X7204456Y4156963D01*
X7199629Y4159250D01*
X7192772Y4159250D01*
X7188200Y4156963D01*
X7183627Y4152392D01*
X7181341Y4145534D01*
X7181341Y4140962D01*
X7183627Y4133850D01*
X7188200Y4129278D01*
X7192772Y4126992D01*
X7199629Y4126992D01*
X7204456Y4129278D01*
X7209027Y4133850D01*
X7259827Y4175505D02*
G01*
X7259827Y4126992D01*
X7275068Y4159250D02*
G01*
X7275068Y4126992D01*
X7275068Y4150105D02*
G01*
X7281925Y4156963D01*
X7286497Y4159250D01*
X7293609Y4159250D01*
X7298181Y4156963D01*
X7300468Y4150105D01*
X7300468Y4126992D01*
X6630670Y4510786D02*
G01*
X6623558Y4508500D01*
X6618986Y4501642D01*
X6616700Y4489957D01*
X6616700Y4483100D01*
X6618986Y4471670D01*
X6623558Y4464557D01*
X6630670Y4462271D01*
X6635241Y4462271D01*
X6642100Y4464557D01*
X6646672Y4471670D01*
X6648958Y4483100D01*
X6648958Y4489957D01*
X6646672Y4501642D01*
X6642100Y4508500D01*
X6635241Y4510786D01*
X6630670Y4510786D01*
X6870700Y4501642D02*
G01*
X6875272Y4503928D01*
X6882129Y4510786D01*
X6882129Y4462271D01*
X7126986Y4499355D02*
G01*
X7126986Y4501642D01*
X7129272Y4506213D01*
X7131558Y4508500D01*
X7136129Y4510786D01*
X7145527Y4510786D01*
X7150100Y4508500D01*
X7152386Y4506213D01*
X7154672Y4501642D01*
X7154672Y4497070D01*
X7152386Y4492244D01*
X7147813Y4485386D01*
X7124700Y4462271D01*
X7156958Y4462271D01*
X7383272Y4510786D02*
G01*
X7408672Y4510786D01*
X7394956Y4492244D01*
X7401813Y4492244D01*
X7406386Y4489957D01*
X7408672Y4487671D01*
X7410958Y4480813D01*
X7410958Y4476242D01*
X7408672Y4469129D01*
X7404100Y4464557D01*
X7397241Y4462271D01*
X7390129Y4462271D01*
X7383272Y4464557D01*
X7380986Y4466844D01*
X7378700Y4471670D01*
X7655813Y4510786D02*
G01*
X7632700Y4478528D01*
X7667243Y4478528D01*
X7655813Y4510786D02*
G01*
X7655813Y4462271D01*
X7914386Y4510786D02*
G01*
X7891272Y4510786D01*
X7888986Y4489957D01*
X7891272Y4492244D01*
X7898129Y4494529D01*
X7905241Y4494529D01*
X7912100Y4492244D01*
X7916672Y4487671D01*
X7918958Y4480813D01*
X7918958Y4476242D01*
X7916672Y4469129D01*
X7912100Y4464557D01*
X7905241Y4462271D01*
X7898129Y4462271D01*
X7891272Y4464557D01*
X7888986Y4466844D01*
X7886700Y4471670D01*
X4069841Y9082786D02*
G01*
X4051300Y9034271D01*
X4069841Y9082786D02*
G01*
X4088129Y9034271D01*
X4058158Y9050528D02*
G01*
X4081272Y9050528D01*
X4103370Y9082786D02*
G01*
X4103370Y9034271D01*
X4103370Y9082786D02*
G01*
X4124197Y9082786D01*
X4131309Y9080500D01*
X4133595Y9078213D01*
X4135881Y9073642D01*
X4135881Y9069070D01*
X4133595Y9064244D01*
X4131309Y9061958D01*
X4124197Y9059671D01*
X4103370Y9059671D01*
X4119625Y9059671D02*
G01*
X4135881Y9034271D01*
X4151122Y9052813D02*
G01*
X4178808Y9052813D01*
X4178808Y9057386D01*
X4176522Y9061958D01*
X4174236Y9064244D01*
X4169409Y9066529D01*
X4162552Y9066529D01*
X4157979Y9064244D01*
X4153408Y9059671D01*
X4151122Y9052813D01*
X4151122Y9048242D01*
X4153408Y9041129D01*
X4157979Y9036558D01*
X4162552Y9034271D01*
X4169409Y9034271D01*
X4174236Y9036558D01*
X4178808Y9041129D01*
X4212590Y9082786D02*
G01*
X4207763Y9082786D01*
X4203191Y9080500D01*
X4200906Y9073642D01*
X4200906Y9034271D01*
X4194047Y9066529D02*
G01*
X4210050Y9066529D01*
X4396486Y9066529D02*
G01*
X4396486Y9029700D01*
X4394200Y9022842D01*
X4391913Y9020555D01*
X4387341Y9018270D01*
X4380229Y9018270D01*
X4375658Y9020555D01*
X4396486Y9059671D02*
G01*
X4391913Y9064244D01*
X4387341Y9066529D01*
X4380229Y9066529D01*
X4375658Y9064244D01*
X4371086Y9059671D01*
X4368800Y9052813D01*
X4368800Y9048242D01*
X4371086Y9041129D01*
X4375658Y9036558D01*
X4380229Y9034271D01*
X4387341Y9034271D01*
X4391913Y9036558D01*
X4396486Y9041129D01*
X4411725Y9066529D02*
G01*
X4411725Y9034271D01*
X4411725Y9057386D02*
G01*
X4418584Y9064244D01*
X4423409Y9066529D01*
X4430268Y9066529D01*
X4434840Y9064244D01*
X4437125Y9057386D01*
X4437125Y9034271D01*
X4480052Y9082786D02*
G01*
X4480052Y9034271D01*
X4480052Y9059671D02*
G01*
X4475479Y9064244D01*
X4470908Y9066529D01*
X4464050Y9066529D01*
X4459224Y9064244D01*
X4454652Y9059671D01*
X4452365Y9052813D01*
X4452365Y9048242D01*
X4454652Y9041129D01*
X4459224Y9036558D01*
X4464050Y9034271D01*
X4470908Y9034271D01*
X4475479Y9036558D01*
X4480052Y9041129D01*
X4584700Y9073642D02*
G01*
X4589272Y9075928D01*
X4596129Y9082786D01*
X4596129Y9034271D01*
X4616195Y9082786D02*
G01*
X4641595Y9082786D01*
X4627625Y9064244D01*
X4634484Y9064244D01*
X4639309Y9061958D01*
X4641595Y9059671D01*
X4643881Y9052813D01*
X4643881Y9048242D01*
X4641595Y9041129D01*
X4636770Y9036558D01*
X4629911Y9034271D01*
X4623054Y9034271D01*
X4616195Y9036558D01*
X4613909Y9038844D01*
X4611370Y9043670D01*
X4838700Y9073642D02*
G01*
X4843272Y9075928D01*
X4850129Y9082786D01*
X4850129Y9034271D01*
X4867909Y9071355D02*
G01*
X4867909Y9073642D01*
X4870195Y9078213D01*
X4872481Y9080500D01*
X4877054Y9082786D01*
X4886197Y9082786D01*
X4890770Y9080500D01*
X4893309Y9078213D01*
X4895595Y9073642D01*
X4895595Y9069070D01*
X4893309Y9064244D01*
X4888484Y9057386D01*
X4865370Y9034271D01*
X4897881Y9034271D01*
X5092700Y9073642D02*
G01*
X5097272Y9075928D01*
X5104129Y9082786D01*
X5104129Y9034271D01*
X5119370Y9073642D02*
G01*
X5124195Y9075928D01*
X5131054Y9082786D01*
X5131054Y9034271D01*
X5346700Y9073642D02*
G01*
X5351272Y9075928D01*
X5358129Y9082786D01*
X5358129Y9034271D01*
X5387340Y9082786D02*
G01*
X5380481Y9080500D01*
X5375909Y9073642D01*
X5373370Y9061958D01*
X5373370Y9055100D01*
X5375909Y9043670D01*
X5380481Y9036558D01*
X5387340Y9034271D01*
X5391911Y9034271D01*
X5398770Y9036558D01*
X5403595Y9043670D01*
X5405881Y9055100D01*
X5405881Y9061958D01*
X5403595Y9073642D01*
X5398770Y9080500D01*
X5391911Y9082786D01*
X5387340Y9082786D01*
X5579872Y9066529D02*
G01*
X5577586Y9059671D01*
X5573013Y9055100D01*
X5566156Y9052813D01*
X5563870Y9052813D01*
X5556758Y9055100D01*
X5552186Y9059671D01*
X5549900Y9066529D01*
X5549900Y9069070D01*
X5552186Y9075928D01*
X5556758Y9080500D01*
X5563870Y9082786D01*
X5566156Y9082786D01*
X5573013Y9080500D01*
X5577586Y9075928D01*
X5579872Y9066529D01*
X5579872Y9055100D01*
X5577586Y9043670D01*
X5573013Y9036558D01*
X5566156Y9034271D01*
X5561329Y9034271D01*
X5554472Y9036558D01*
X5552186Y9041129D01*
X5815329Y9082786D02*
G01*
X5808472Y9080500D01*
X5806186Y9075928D01*
X5806186Y9071355D01*
X5808472Y9066529D01*
X5813043Y9064244D01*
X5822441Y9061958D01*
X5829300Y9059671D01*
X5833872Y9055100D01*
X5836158Y9050528D01*
X5836158Y9043670D01*
X5833872Y9038844D01*
X5831586Y9036558D01*
X5824727Y9034271D01*
X5815329Y9034271D01*
X5808472Y9036558D01*
X5806186Y9038844D01*
X5803900Y9043670D01*
X5803900Y9050528D01*
X5806186Y9055100D01*
X5810758Y9059671D01*
X5817870Y9061958D01*
X5827013Y9064244D01*
X5831586Y9066529D01*
X5833872Y9071355D01*
X5833872Y9075928D01*
X5831586Y9080500D01*
X5824727Y9082786D01*
X5815329Y9082786D01*
X6242558Y9082786D02*
G01*
X6219443Y9034271D01*
X6210300Y9082786D02*
G01*
X6242558Y9082786D01*
X6491986Y9075928D02*
G01*
X6489700Y9080500D01*
X6482841Y9082786D01*
X6478270Y9082786D01*
X6471158Y9080500D01*
X6466586Y9073642D01*
X6464300Y9061958D01*
X6464300Y9050528D01*
X6466586Y9041129D01*
X6471158Y9036558D01*
X6478270Y9034271D01*
X6480556Y9034271D01*
X6487413Y9036558D01*
X6491986Y9041129D01*
X6494272Y9048242D01*
X6494272Y9050528D01*
X6491986Y9057386D01*
X6487413Y9061958D01*
X6480556Y9064244D01*
X6478270Y9064244D01*
X6471158Y9061958D01*
X6466586Y9057386D01*
X6464300Y9050528D01*
X6745986Y9082786D02*
G01*
X6722872Y9082786D01*
X6720586Y9061958D01*
X6722872Y9064244D01*
X6729729Y9066529D01*
X6736841Y9066529D01*
X6743700Y9064244D01*
X6748272Y9059671D01*
X6750558Y9052813D01*
X6750558Y9048242D01*
X6748272Y9041129D01*
X6743700Y9036558D01*
X6736841Y9034271D01*
X6729729Y9034271D01*
X6722872Y9036558D01*
X6720586Y9038844D01*
X6718300Y9043670D01*
X6995413Y9082786D02*
G01*
X6972300Y9050528D01*
X7006843Y9050528D01*
X6995413Y9082786D02*
G01*
X6995413Y9034271D01*
X7230872Y9082786D02*
G01*
X7256272Y9082786D01*
X7242556Y9064244D01*
X7249413Y9064244D01*
X7253986Y9061958D01*
X7256272Y9059671D01*
X7258558Y9052813D01*
X7258558Y9048242D01*
X7256272Y9041129D01*
X7251700Y9036558D01*
X7244841Y9034271D01*
X7237729Y9034271D01*
X7230872Y9036558D01*
X7228586Y9038844D01*
X7226300Y9043670D01*
X7482586Y9071355D02*
G01*
X7482586Y9073642D01*
X7484872Y9078213D01*
X7487158Y9080500D01*
X7491729Y9082786D01*
X7501127Y9082786D01*
X7505700Y9080500D01*
X7507986Y9078213D01*
X7510272Y9073642D01*
X7510272Y9069070D01*
X7507986Y9064244D01*
X7503413Y9057386D01*
X7480300Y9034271D01*
X7512558Y9034271D01*
X7734300Y9073642D02*
G01*
X7738872Y9075928D01*
X7745729Y9082786D01*
X7745729Y9034271D01*
X8002270Y9082786D02*
G01*
X7995158Y9080500D01*
X7990586Y9073642D01*
X7988300Y9061958D01*
X7988300Y9055100D01*
X7990586Y9043670D01*
X7995158Y9036558D01*
X8002270Y9034271D01*
X8006841Y9034271D01*
X8013700Y9036558D01*
X8018272Y9043670D01*
X8020558Y9055100D01*
X8020558Y9061958D01*
X8018272Y9073642D01*
X8013700Y9080500D01*
X8006841Y9082786D01*
X8002270Y9082786D01*
X4737100Y9336786D02*
G01*
X4737100Y9288271D01*
X4737100Y9336786D02*
G01*
X4753356Y9336786D01*
X4760213Y9334500D01*
X4764786Y9329928D01*
X4767072Y9325355D01*
X4769358Y9318244D01*
X4769358Y9306813D01*
X4767072Y9299955D01*
X4764786Y9295129D01*
X4760213Y9290558D01*
X4753356Y9288271D01*
X4737100Y9288271D01*
X4784597Y9336786D02*
G01*
X4786884Y9334500D01*
X4789170Y9336786D01*
X4786884Y9339071D01*
X4784597Y9336786D01*
X4786884Y9320529D02*
G01*
X4786884Y9288271D01*
X4832350Y9320529D02*
G01*
X4832350Y9283700D01*
X4829809Y9276842D01*
X4827524Y9274555D01*
X4822952Y9272270D01*
X4816093Y9272270D01*
X4811522Y9274555D01*
X4832350Y9313671D02*
G01*
X4827524Y9318244D01*
X4822952Y9320529D01*
X4816093Y9320529D01*
X4811522Y9318244D01*
X4806950Y9313671D01*
X4804409Y9306813D01*
X4804409Y9302242D01*
X4806950Y9295129D01*
X4811522Y9290558D01*
X4816093Y9288271D01*
X4822952Y9288271D01*
X4827524Y9290558D01*
X4832350Y9295129D01*
X4847590Y9336786D02*
G01*
X4849875Y9334500D01*
X4852161Y9336786D01*
X4849875Y9339071D01*
X4847590Y9336786D01*
X4849875Y9320529D02*
G01*
X4849875Y9288271D01*
X4874259Y9336786D02*
G01*
X4874259Y9297670D01*
X4876545Y9290558D01*
X4881118Y9288271D01*
X4885690Y9288271D01*
X4867402Y9320529D02*
G01*
X4883404Y9320529D01*
X4928870Y9320529D02*
G01*
X4928870Y9288271D01*
X4928870Y9313671D02*
G01*
X4924043Y9318244D01*
X4919472Y9320529D01*
X4912613Y9320529D01*
X4908041Y9318244D01*
X4903470Y9313671D01*
X4900929Y9306813D01*
X4900929Y9302242D01*
X4903470Y9295129D01*
X4908041Y9290558D01*
X4912613Y9288271D01*
X4919472Y9288271D01*
X4924043Y9290558D01*
X4928870Y9295129D01*
X4944109Y9336786D02*
G01*
X4944109Y9288271D01*
X4994909Y9336786D02*
G01*
X4994909Y9288271D01*
X5051552Y9345929D02*
G01*
X5010150Y9272270D01*
X5080761Y9336786D02*
G01*
X5076190Y9334500D01*
X5071363Y9329928D01*
X5069077Y9325355D01*
X5066791Y9318244D01*
X5066791Y9306813D01*
X5069077Y9299955D01*
X5071363Y9295129D01*
X5076190Y9290558D01*
X5080761Y9288271D01*
X5089906Y9288271D01*
X5094477Y9290558D01*
X5099050Y9295129D01*
X5101590Y9299955D01*
X5103875Y9306813D01*
X5103875Y9318244D01*
X5101590Y9325355D01*
X5099050Y9329928D01*
X5094477Y9334500D01*
X5089906Y9336786D01*
X5080761Y9336786D01*
X6667500Y9336786D02*
G01*
X6667500Y9288271D01*
X6667500Y9336786D02*
G01*
X6683756Y9336786D01*
X6690613Y9334500D01*
X6695186Y9329928D01*
X6697472Y9325355D01*
X6699758Y9318244D01*
X6699758Y9306813D01*
X6697472Y9299955D01*
X6695186Y9295129D01*
X6690613Y9290558D01*
X6683756Y9288271D01*
X6667500Y9288271D01*
X6714997Y9336786D02*
G01*
X6717284Y9334500D01*
X6719570Y9336786D01*
X6717284Y9339071D01*
X6714997Y9336786D01*
X6717284Y9320529D02*
G01*
X6717284Y9288271D01*
X6762750Y9320529D02*
G01*
X6762750Y9283700D01*
X6760209Y9276842D01*
X6757924Y9274555D01*
X6753352Y9272270D01*
X6746493Y9272270D01*
X6741922Y9274555D01*
X6762750Y9313671D02*
G01*
X6757924Y9318244D01*
X6753352Y9320529D01*
X6746493Y9320529D01*
X6741922Y9318244D01*
X6737350Y9313671D01*
X6734809Y9306813D01*
X6734809Y9302242D01*
X6737350Y9295129D01*
X6741922Y9290558D01*
X6746493Y9288271D01*
X6753352Y9288271D01*
X6757924Y9290558D01*
X6762750Y9295129D01*
X6777990Y9336786D02*
G01*
X6780275Y9334500D01*
X6782561Y9336786D01*
X6780275Y9339071D01*
X6777990Y9336786D01*
X6780275Y9320529D02*
G01*
X6780275Y9288271D01*
X6804659Y9336786D02*
G01*
X6804659Y9297670D01*
X6806945Y9290558D01*
X6811518Y9288271D01*
X6816090Y9288271D01*
X6797802Y9320529D02*
G01*
X6813804Y9320529D01*
X6859270Y9320529D02*
G01*
X6859270Y9288271D01*
X6859270Y9313671D02*
G01*
X6854443Y9318244D01*
X6849872Y9320529D01*
X6843013Y9320529D01*
X6838441Y9318244D01*
X6833870Y9313671D01*
X6831329Y9306813D01*
X6831329Y9302242D01*
X6833870Y9295129D01*
X6838441Y9290558D01*
X6843013Y9288271D01*
X6849872Y9288271D01*
X6854443Y9290558D01*
X6859270Y9295129D01*
X6874509Y9336786D02*
G01*
X6874509Y9288271D01*
X6925309Y9336786D02*
G01*
X6925309Y9288271D01*
X6981952Y9345929D02*
G01*
X6940550Y9272270D01*
X7011161Y9336786D02*
G01*
X7006590Y9334500D01*
X7001763Y9329928D01*
X6999477Y9325355D01*
X6997191Y9318244D01*
X6997191Y9306813D01*
X6999477Y9299955D01*
X7001763Y9295129D01*
X7006590Y9290558D01*
X7011161Y9288271D01*
X7020306Y9288271D01*
X7024877Y9290558D01*
X7029450Y9295129D01*
X7031990Y9299955D01*
X7034275Y9306813D01*
X7034275Y9318244D01*
X7031990Y9325355D01*
X7029450Y9329928D01*
X7024877Y9334500D01*
X7020306Y9336786D01*
X7011161Y9336786D01*
X9389821Y8531839D02*
G01*
X9485708Y8531839D01*
X9485708Y8663960D01*
X9389821Y8663960D01*
X9304578Y8531839D02*
G01*
X9208691Y8531839D01*
X9208691Y8663960D01*
X9304578Y8663960D01*
X9377121Y7833339D02*
G01*
X9473008Y7833339D01*
X9473008Y7965460D01*
X9377121Y7965460D01*
X9291878Y7833339D02*
G01*
X9195991Y7833339D01*
X9195991Y7965460D01*
X9291878Y7965460D01*
X9377121Y7185639D02*
G01*
X9473008Y7185639D01*
X9473008Y7317760D01*
X9377121Y7317760D01*
X9291878Y7185639D02*
G01*
X9195991Y7185639D01*
X9195991Y7317760D01*
X9291878Y7317760D01*
X9377121Y6436339D02*
G01*
X9473008Y6436339D01*
X9473008Y6568460D01*
X9377121Y6568460D01*
X9291878Y6436339D02*
G01*
X9195991Y6436339D01*
X9195991Y6568460D01*
X9291878Y6568460D01*
X9377121Y5750539D02*
G01*
X9473008Y5750539D01*
X9473008Y5882660D01*
X9377121Y5882660D01*
X9291878Y5750539D02*
G01*
X9195991Y5750539D01*
X9195991Y5882660D01*
X9291878Y5882660D01*
X9377121Y5102839D02*
G01*
X9473008Y5102839D01*
X9473008Y5234960D01*
X9377121Y5234960D01*
X9291878Y5102839D02*
G01*
X9195991Y5102839D01*
X9195991Y5234960D01*
X9291878Y5234960D01*
X9377121Y4391639D02*
G01*
X9473008Y4391639D01*
X9473008Y4523760D01*
X9377121Y4523760D01*
X9291878Y4391639D02*
G01*
X9195991Y4391639D01*
X9195991Y4523760D01*
X9291878Y4523760D01*
D11*
X11330238Y6822965D02*
G01*
X11386118Y7135393D01*
X11843318Y7234450D02*
G01*
X11477553Y7234450D01*
X11866176Y6805193D02*
G01*
X11922053Y7117608D01*
X11767118Y6713750D02*
G01*
X11401353Y6713750D01*
X11685838Y6193050D02*
G01*
X11320076Y6193050D01*
X11784896Y6284493D02*
G01*
X11840776Y6596908D01*
X11248953Y6302265D02*
G01*
X11304838Y6614693D01*
D12*
X11003203Y7668300D02*
G01*
X12263198Y7668300D01*
X12263196Y7668300D02*
G01*
X12263196Y5768301D01*
X12263196Y5768299D02*
G01*
X11003201Y5768299D01*
X11003203Y5768299D02*
G01*
X11003203Y7668298D01*
D11*
G75*
G01*
X12029501Y6245629D02*
G03*
X12030263Y6245629I381J-29596D01*
M02*
