G04 Layer: BottomSilkscreenLayer*
G04 EasyEDA v6.5.46, 2025-06-25 09:17:09*
G04 c32a7bcbb03645a88eb5fb473b9f6d41,a0a929ee5348484eab1505e8ec72bbe5,10*
G04 Gerber Generator version 0.2*
G04 Scale: 100 percent, Rotated: No, Reflected: No *
G04 Dimensions in millimeters *
G04 leading zeros omitted , absolute positions ,4 integer and 5 decimal *
%FSLAX45Y45*%
%MOMM*%

%ADD10C,0.0001*%

%LPD*%
G36*
X10713516Y9339275D02*
G01*
X10689234Y9338868D01*
X10680446Y9337751D01*
X10669422Y9335617D01*
X10660583Y9333280D01*
X10654538Y9332315D01*
X10646257Y9330182D01*
X10641330Y9328150D01*
X10630052Y9322409D01*
X10621467Y9317177D01*
X10613237Y9311690D01*
X10606074Y9306153D01*
X10596676Y9298330D01*
X10593527Y9294825D01*
X10592663Y9290253D01*
X10593730Y9286494D01*
X10596016Y9284360D01*
X10598912Y9283395D01*
X10602417Y9284309D01*
X10611002Y9292386D01*
X10617606Y9297822D01*
X10623143Y9301835D01*
X10632490Y9307626D01*
X10644632Y9313875D01*
X10653979Y9317482D01*
X10663885Y9320174D01*
X10668304Y9321139D01*
X10672724Y9322409D01*
X10677702Y9323425D01*
X10685678Y9324492D01*
X10686745Y9325102D01*
X10714126Y9325152D01*
X10726724Y9322816D01*
X10741050Y9319514D01*
X10748213Y9317278D01*
X10757001Y9313824D01*
X10771225Y9306306D01*
X10779252Y9300870D01*
X10790631Y9291777D01*
X10797794Y9284360D01*
X10800943Y9283192D01*
X10805058Y9284309D01*
X10808004Y9287205D01*
X10808004Y9292742D01*
X10805312Y9297263D01*
X10795609Y9306102D01*
X10790072Y9310624D01*
X10776661Y9319463D01*
X10761980Y9326626D01*
X10748772Y9331807D01*
X10736630Y9335922D01*
X10731652Y9337141D01*
X10724540Y9338259D01*
G37*
G36*
X10688777Y9293098D02*
G01*
X10676026Y9290812D01*
X10671606Y9289694D01*
X10668304Y9288526D01*
X10659516Y9284462D01*
X10647934Y9277553D01*
X10636504Y9269780D01*
X10630611Y9264396D01*
X10629290Y9260078D01*
X10631220Y9255810D01*
X10635386Y9253474D01*
X10638078Y9253474D01*
X10643514Y9256877D01*
X10644073Y9257639D01*
X10651490Y9263380D01*
X10661192Y9269730D01*
X10672724Y9275368D01*
X10679328Y9277553D01*
X10685373Y9278772D01*
X10700816Y9279991D01*
X10717377Y9278264D01*
X10729468Y9275368D01*
X10740542Y9270136D01*
X10753699Y9261297D01*
X10762996Y9253931D01*
X10768584Y9254693D01*
X10771428Y9256674D01*
X10772648Y9260687D01*
X10771479Y9264192D01*
X10768025Y9267850D01*
X10754512Y9277400D01*
X10739577Y9286443D01*
X10733328Y9288678D01*
X10725048Y9290761D01*
X10719003Y9291980D01*
X10712399Y9292945D01*
G37*
G36*
X10705795Y9250629D02*
G01*
X10689742Y9250172D01*
X10681563Y9247733D01*
X10674400Y9244533D01*
X10667238Y9239199D01*
X10662818Y9234424D01*
X10661446Y9231985D01*
X10661446Y9227362D01*
X10663834Y9224822D01*
X10667949Y9224822D01*
X10674299Y9228277D01*
X10679887Y9232493D01*
X10685373Y9235186D01*
X10688523Y9236354D01*
X10696397Y9238030D01*
X10703001Y9237980D01*
X10711281Y9236506D01*
X10716818Y9234576D01*
X10722813Y9231325D01*
X10725810Y9229191D01*
X10726521Y9229191D01*
X10732922Y9224721D01*
X10737900Y9224518D01*
X10740745Y9227210D01*
X10740745Y9231680D01*
X10738459Y9235541D01*
X10731550Y9242145D01*
X10725353Y9245854D01*
X10720679Y9247530D01*
X10712399Y9249664D01*
G37*
G36*
X10371023Y9222028D02*
G01*
X10367365Y9220504D01*
X10364724Y9216796D01*
X10364859Y9206077D01*
X10380167Y9205976D01*
X10392308Y9202623D01*
X10398912Y9200388D01*
X10403840Y9198102D01*
X10411561Y9193733D01*
X10420350Y9187078D01*
X10428071Y9180677D01*
X10435691Y9170517D01*
X10442244Y9159494D01*
X10443057Y9158427D01*
X10446461Y9149588D01*
X10449864Y9136075D01*
X10449864Y9125356D01*
X10444073Y9131401D01*
X10430713Y9147962D01*
X10418826Y9163913D01*
X10413746Y9169958D01*
X10408412Y9176918D01*
X10405719Y9177985D01*
X10402722Y9177985D01*
X10400284Y9176258D01*
X10400284Y9171635D01*
X10402468Y9165590D01*
X10407091Y9158935D01*
X10417657Y9145727D01*
X10422839Y9138869D01*
X10432542Y9128099D01*
X10437145Y9122308D01*
X10471708Y9122308D01*
X10473080Y9130284D01*
X10475366Y9139682D01*
X10479989Y9149181D01*
X10485374Y9158274D01*
X10492079Y9166098D01*
X10498582Y9172041D01*
X10507980Y9178340D01*
X10517378Y9182811D01*
X10535158Y9189618D01*
X10535920Y9188348D01*
X10532973Y9176054D01*
X10527995Y9158935D01*
X10521594Y9145727D01*
X10514279Y9135821D01*
X10509656Y9131046D01*
X10501934Y9124696D01*
X10495330Y9120327D01*
X10490352Y9117990D01*
X10484408Y9115704D01*
X10482275Y9115704D01*
X10482884Y9117380D01*
X10487202Y9123680D01*
X10499039Y9137446D01*
X10512450Y9151264D01*
X10515803Y9155633D01*
X10518190Y9160865D01*
X10518190Y9163913D01*
X10516006Y9167469D01*
X10513517Y9168079D01*
X10510520Y9167215D01*
X10504728Y9162288D01*
X10499598Y9157055D01*
X10486034Y9139123D01*
X10482935Y9135516D01*
X10475315Y9124238D01*
X10472470Y9121597D01*
X10471708Y9122308D01*
X10437145Y9122308D01*
X10438841Y9120174D01*
X10438841Y9119514D01*
X10434726Y9120174D01*
X10429748Y9121394D01*
X10422483Y9124950D01*
X10417098Y9128048D01*
X10410444Y9132468D01*
X10396016Y9146997D01*
X10392816Y9151772D01*
X10389768Y9157563D01*
X10386415Y9166656D01*
X10383875Y9176613D01*
X10381691Y9186519D01*
X10379354Y9199067D01*
X10379354Y9206077D01*
X10364859Y9206077D01*
X10364978Y9192564D01*
X10368483Y9175496D01*
X10371175Y9166098D01*
X10375900Y9153702D01*
X10380421Y9144355D01*
X10385806Y9136380D01*
X10399674Y9122410D01*
X10406634Y9117736D01*
X10414304Y9111894D01*
X10425633Y9106255D01*
X10425633Y9105442D01*
X10422483Y9102394D01*
X10415371Y9107779D01*
X10406075Y9112300D01*
X10399471Y9114739D01*
X10386771Y9114790D01*
X10379202Y9112351D01*
X10374122Y9110014D01*
X10368026Y9105900D01*
X10361879Y9099448D01*
X10358323Y9094165D01*
X10355122Y9087154D01*
X10352887Y9078823D01*
X10352887Y9070086D01*
X10367060Y9070086D01*
X10367111Y9079636D01*
X10369296Y9084564D01*
X10374477Y9091168D01*
X10376560Y9095282D01*
X10380218Y9098026D01*
X10384586Y9099905D01*
X10392308Y9101378D01*
X10394492Y9101277D01*
X10399471Y9099956D01*
X10404398Y9097822D01*
X10414050Y9091422D01*
X10415727Y9087459D01*
X10415727Y9078518D01*
X10416743Y9074099D01*
X10415828Y9070949D01*
X10428935Y9070949D01*
X10428935Y9079788D01*
X10430154Y9085681D01*
X10433354Y9092895D01*
X10436606Y9096806D01*
X10444937Y9100921D01*
X10451236Y9102445D01*
X10458958Y9102394D01*
X10473283Y9098026D01*
X10478516Y9094216D01*
X10484713Y9084868D01*
X10485272Y9077045D01*
X10484079Y9071813D01*
X10498074Y9071813D01*
X10498226Y9080703D01*
X10500715Y9087358D01*
X10503712Y9091726D01*
X10509758Y9097416D01*
X10515142Y9099905D01*
X10522864Y9101328D01*
X10523982Y9101277D01*
X10529925Y9099804D01*
X10537901Y9095841D01*
X10543235Y9089999D01*
X10546842Y9082074D01*
X10546842Y9072067D01*
X10538307Y9063228D01*
X10529112Y9055354D01*
X10524642Y9051798D01*
X10519562Y9051798D01*
X10514482Y9053372D01*
X10509859Y9055709D01*
X10505389Y9059722D01*
X10499699Y9068612D01*
X10498074Y9071813D01*
X10484079Y9071813D01*
X10483850Y9070797D01*
X10482326Y9068358D01*
X10481106Y9068612D01*
X10479633Y9065869D01*
X10478414Y9060891D01*
X10472115Y9054846D01*
X10466679Y9052102D01*
X10461701Y9050731D01*
X10451693Y9050680D01*
X10445648Y9052712D01*
X10440212Y9055862D01*
X10432288Y9063888D01*
X10428935Y9070949D01*
X10415828Y9070949D01*
X10415117Y9068460D01*
X10411206Y9062008D01*
X10408818Y9059367D01*
X10402773Y9055354D01*
X10398353Y9053322D01*
X10392816Y9051798D01*
X10386314Y9051798D01*
X10379608Y9054185D01*
X10373258Y9058503D01*
X10369905Y9063075D01*
X10367060Y9070086D01*
X10352887Y9070086D01*
X10352887Y9068155D01*
X10354157Y9063634D01*
X10356189Y9058960D01*
X10356189Y9058402D01*
X10351516Y9056166D01*
X10345013Y9051544D01*
X10339882Y9044889D01*
X10336631Y9038844D01*
X10335361Y9034983D01*
X10333075Y9024315D01*
X10333075Y9021267D01*
X10346283Y9021267D01*
X10346283Y9024112D01*
X10348722Y9032240D01*
X10350804Y9036100D01*
X10353395Y9039504D01*
X10357764Y9044127D01*
X10363606Y9047937D01*
X10364876Y9047937D01*
X10366349Y9046159D01*
X10372648Y9041892D01*
X10373309Y9041892D01*
X10377982Y9039809D01*
X10382504Y9038590D01*
X10385145Y9038539D01*
X10386517Y9037675D01*
X10383774Y9027718D01*
X10383774Y9016796D01*
X10396677Y9016796D01*
X10396728Y9028938D01*
X10400436Y9036659D01*
X10407751Y9043822D01*
X10416438Y9048191D01*
X10429189Y9048546D01*
X10430865Y9046819D01*
X10445089Y9037218D01*
X10447426Y9032798D01*
X10450423Y9023400D01*
X10451084Y9019844D01*
X10448985Y9013190D01*
X10463072Y9013190D01*
X10463123Y9027261D01*
X10464647Y9033103D01*
X10466781Y9037218D01*
X10474401Y9040825D01*
X10481005Y9045854D01*
X10487609Y9049054D01*
X10493095Y9048953D01*
X10498378Y9047530D01*
X10510621Y9037828D01*
X10482478Y9013494D01*
X10472470Y9004401D01*
X10470184Y9004401D01*
X10464596Y9009634D01*
X10463072Y9013190D01*
X10448985Y9013190D01*
X10448594Y9011970D01*
X10443464Y9004147D01*
X10438384Y8999067D01*
X10432186Y8996019D01*
X10425887Y8994546D01*
X10418165Y8994495D01*
X10412374Y8996629D01*
X10407700Y8999372D01*
X10402417Y9004960D01*
X10398760Y9010396D01*
X10396677Y9016796D01*
X10383774Y9016796D01*
X10383774Y9013952D01*
X10385856Y9007500D01*
X10385348Y9006636D01*
X10382148Y9006636D01*
X10376306Y9003995D01*
X10368584Y8998254D01*
X10366705Y8997238D01*
X10361422Y8999016D01*
X10358120Y9001353D01*
X10350703Y9007195D01*
X10347858Y9012123D01*
X10346334Y9018473D01*
X10346283Y9021267D01*
X10333075Y9021267D01*
X10333075Y9019692D01*
X10334244Y9012428D01*
X10335971Y9006332D01*
X10339730Y8998712D01*
X10341914Y8995664D01*
X10350855Y8988907D01*
X10358374Y8985148D01*
X10357104Y8982100D01*
X10356392Y8980982D01*
X10354891Y8975801D01*
X10368229Y8975801D01*
X10371023Y8980576D01*
X10375900Y8986570D01*
X10381996Y8991244D01*
X10387888Y8993378D01*
X10392816Y8993378D01*
X10395051Y8992108D01*
X10403636Y8985504D01*
X10411561Y8981541D01*
X10415473Y8976309D01*
X10416879Y8967927D01*
X10429849Y8967927D01*
X10430611Y8972753D01*
X10431272Y8979662D01*
X10436352Y8983319D01*
X10442905Y8986875D01*
X10448493Y8990584D01*
X10454538Y8996680D01*
X10455097Y8996578D01*
X10459770Y8993886D01*
X10459770Y8992920D01*
X10455706Y8990431D01*
X10448442Y8984284D01*
X10431068Y8968333D01*
X10429849Y8967927D01*
X10416879Y8967927D01*
X10415524Y8961729D01*
X10413085Y8956192D01*
X10409783Y8951722D01*
X10402427Y8946235D01*
X10436098Y8946235D01*
X10436098Y8946845D01*
X10476179Y8947200D01*
X10476636Y8946286D01*
X10476230Y8939530D01*
X10463885Y8936177D01*
X10451795Y8936634D01*
X10448493Y8937244D01*
X10445191Y8938514D01*
X10440212Y8941765D01*
X10436098Y8946235D01*
X10402427Y8946235D01*
X10396829Y8943746D01*
X10386161Y8943695D01*
X10384028Y8944813D01*
X10376611Y8947759D01*
X10372090Y8952687D01*
X10368584Y8960053D01*
X10368229Y8975801D01*
X10354891Y8975801D01*
X10354005Y8972854D01*
X10354005Y8962288D01*
X10355529Y8955125D01*
X10357815Y8948623D01*
X10362336Y8941663D01*
X10367670Y8936685D01*
X10373918Y8932672D01*
X10377982Y8930995D01*
X10383875Y8929471D01*
X10393172Y8929065D01*
X10393629Y8928608D01*
X10392728Y8923477D01*
X10405770Y8923477D01*
X10405770Y8931046D01*
X10413796Y8935466D01*
X10422026Y8943238D01*
X10422686Y8942578D01*
X10424769Y8938564D01*
X10429189Y8933078D01*
X10431424Y8930843D01*
X10434726Y8928608D01*
X10441889Y8925458D01*
X10450677Y8922410D01*
X10451033Y8919413D01*
X10448385Y8912352D01*
X10464139Y8912352D01*
X10464444Y8922562D01*
X10473283Y8924442D01*
X10475620Y8925153D01*
X10476230Y8924188D01*
X10475010Y8901379D01*
X10474248Y8901379D01*
X10466527Y8908846D01*
X10464139Y8912352D01*
X10448385Y8912352D01*
X10444429Y8907068D01*
X10438587Y8903258D01*
X10434726Y8901684D01*
X10422585Y8901785D01*
X10415981Y8904732D01*
X10411764Y8908846D01*
X10408208Y8914333D01*
X10406938Y8917635D01*
X10405770Y8923477D01*
X10392728Y8923477D01*
X10392410Y8921648D01*
X10393781Y8913317D01*
X10394899Y8910472D01*
X10399369Y8901125D01*
X10407142Y8893403D01*
X10413796Y8889949D01*
X10420400Y8887714D01*
X10428427Y8886342D01*
X10437469Y8887764D01*
X10443514Y8889898D01*
X10450525Y8893302D01*
X10457129Y8899398D01*
X10458196Y8897518D01*
X10460583Y8895232D01*
X10466781Y8890965D01*
X10472521Y8887612D01*
X10473842Y8887612D01*
X10475214Y8886698D01*
X10475214Y8766149D01*
X10476331Y8716518D01*
X10477500Y8711031D01*
X10479786Y8704427D01*
X10482326Y8698788D01*
X10486745Y8692946D01*
X10492079Y8688273D01*
X10497515Y8685072D01*
X10503560Y8682786D01*
X10510266Y8681567D01*
X10619384Y8681567D01*
X10628630Y8680348D01*
X10634929Y8677046D01*
X10636758Y8673134D01*
X10637977Y8669731D01*
X10638739Y8627313D01*
X10639094Y8625078D01*
X10638282Y8624824D01*
X10555224Y8624824D01*
X10551922Y8630615D01*
X10548772Y8634018D01*
X10540492Y8639454D01*
X10537393Y8640775D01*
X10528808Y8640775D01*
X10522559Y8638743D01*
X10518038Y8635593D01*
X10513060Y8629497D01*
X10510316Y8623452D01*
X10510295Y8616340D01*
X10523677Y8616340D01*
X10523677Y8620150D01*
X10526166Y8625027D01*
X10531144Y8627516D01*
X10533888Y8627516D01*
X10538815Y8625078D01*
X10541304Y8621318D01*
X10541304Y8615629D01*
X10538866Y8611971D01*
X10535920Y8609787D01*
X10530941Y8609228D01*
X10525963Y8611666D01*
X10523677Y8616340D01*
X10510295Y8616340D01*
X10510266Y8613495D01*
X10513822Y8606536D01*
X10519003Y8601456D01*
X10527182Y8597696D01*
X10538866Y8597646D01*
X10544911Y8600440D01*
X10552633Y8606586D01*
X10554411Y8611311D01*
X10639501Y8611057D01*
X10638790Y8606891D01*
X10638180Y8585708D01*
X10636656Y8585708D01*
X10630814Y8583117D01*
X10624413Y8576056D01*
X10622076Y8571636D01*
X10620654Y8567216D01*
X10620654Y8564067D01*
X10633760Y8564067D01*
X10635589Y8567521D01*
X10640771Y8571331D01*
X10647476Y8571382D01*
X10651185Y8568893D01*
X10653318Y8565235D01*
X10653318Y8561120D01*
X10651591Y8557869D01*
X10649051Y8554974D01*
X10645190Y8552637D01*
X10642295Y8552637D01*
X10638332Y8554262D01*
X10635183Y8558987D01*
X10633760Y8564067D01*
X10620654Y8564067D01*
X10620654Y8560511D01*
X10622940Y8553500D01*
X10625124Y8548928D01*
X10630154Y8543899D01*
X10636148Y8540953D01*
X10642447Y8539429D01*
X10647070Y8539429D01*
X10653064Y8541664D01*
X10659516Y8545830D01*
X10663631Y8550097D01*
X10667187Y8556752D01*
X10667085Y8568893D01*
X10664647Y8575243D01*
X10659364Y8580983D01*
X10650931Y8584844D01*
X10651642Y8587079D01*
X10652150Y8604148D01*
X10650321Y8618575D01*
X10652099Y8624519D01*
X10652709Y8664752D01*
X10651032Y8673541D01*
X10649966Y8677656D01*
X10646613Y8684869D01*
X10640822Y8690965D01*
X10633049Y8694674D01*
X10622026Y8695994D01*
X10508538Y8695639D01*
X10504119Y8697163D01*
X10498937Y8700617D01*
X10495432Y8704986D01*
X10491876Y8712708D01*
X10490708Y8718194D01*
X10489793Y8757869D01*
X10489793Y8864193D01*
X10490352Y8945168D01*
X10489387Y8953449D01*
X10487050Y8956954D01*
X10484205Y8958630D01*
X10479328Y8960205D01*
X10472369Y8960967D01*
X10446816Y8960916D01*
X10443260Y8961729D01*
X10453420Y8969959D01*
X10467238Y8983065D01*
X10479328Y8993174D01*
X10485932Y8998051D01*
X10494721Y9005773D01*
X10502188Y9012834D01*
X10506354Y9015577D01*
X10516819Y9023400D01*
X10530027Y9036100D01*
X10539374Y9044533D01*
X10553192Y9055354D01*
X10559796Y9060891D01*
X10569143Y9069832D01*
X10611002Y9105493D01*
X10627918Y9120225D01*
X10700004Y9181287D01*
X10701020Y9181287D01*
X10710722Y9173921D01*
X10720222Y9166098D01*
X10734446Y9153448D01*
X10749838Y9140190D01*
X10758424Y9133128D01*
X10765282Y9126982D01*
X10777931Y9116618D01*
X10782960Y9112148D01*
X10799673Y9099042D01*
X10805058Y9093403D01*
X10812119Y9087967D01*
X10815421Y9084716D01*
X10822025Y9079738D01*
X10823702Y9077807D01*
X10830560Y9072321D01*
X10837519Y9065818D01*
X10845749Y9059621D01*
X10847933Y9057589D01*
X10852912Y9053779D01*
X10866475Y9041688D01*
X10869422Y9039453D01*
X10879886Y9030004D01*
X10884865Y9026194D01*
X10885373Y9025585D01*
X10888726Y9023045D01*
X10904677Y9009278D01*
X10909655Y9004655D01*
X10913516Y9001556D01*
X10919561Y8995816D01*
X10935512Y8982760D01*
X10941608Y8977071D01*
X10952632Y8968181D01*
X10959642Y8961018D01*
X10920577Y8961628D01*
X10915345Y8959596D01*
X10911789Y8955481D01*
X10910044Y8948318D01*
X10923676Y8948318D01*
X10937189Y8947759D01*
X10947654Y8946540D01*
X10960303Y8946134D01*
X10968939Y8947607D01*
X10972749Y8949944D01*
X10974070Y8952331D01*
X10975441Y8956751D01*
X10975492Y8962440D01*
X10973003Y8967165D01*
X10963097Y8977172D01*
X10950397Y8987739D01*
X10944910Y8991854D01*
X10935004Y9000490D01*
X10935614Y9001099D01*
X11010290Y9001404D01*
X11010493Y9000845D01*
X11009731Y8861450D01*
X11008461Y8846007D01*
X11007394Y8841232D01*
X11005058Y8836253D01*
X10999063Y8829802D01*
X10992002Y8826296D01*
X10987328Y8825280D01*
X10970260Y8823756D01*
X10923981Y8825077D01*
X10923676Y8948318D01*
X10910044Y8948318D01*
X10909147Y8944660D01*
X10908995Y8728659D01*
X10908131Y8717076D01*
X10906658Y8711285D01*
X10903610Y8705646D01*
X10896549Y8699246D01*
X10890910Y8697112D01*
X10715701Y8695791D01*
X10708538Y8693607D01*
X10704677Y8691829D01*
X10698581Y8685530D01*
X10695787Y8679637D01*
X10693400Y8667038D01*
X10693400Y8647785D01*
X10695838Y8638844D01*
X10699038Y8632240D01*
X10702442Y8627821D01*
X10707370Y8623249D01*
X10864138Y8623198D01*
X10865459Y8627516D01*
X10868710Y8631428D01*
X10872571Y8633053D01*
X10875467Y8633002D01*
X10880445Y8630615D01*
X10882934Y8626856D01*
X10882934Y8620912D01*
X10881258Y8617712D01*
X10878058Y8615426D01*
X10874705Y8614765D01*
X10869726Y8615527D01*
X10866323Y8618880D01*
X10864138Y8623198D01*
X10707472Y8623198D01*
X10716564Y8618626D01*
X10850727Y8618778D01*
X10852607Y8618067D01*
X10853318Y8613851D01*
X10859617Y8606332D01*
X10863884Y8603386D01*
X10869218Y8601100D01*
X10879023Y8601100D01*
X10886897Y8604656D01*
X10891469Y8608720D01*
X10894517Y8614257D01*
X10896142Y8619591D01*
X10896142Y8628786D01*
X10892637Y8636101D01*
X10886440Y8642146D01*
X10881004Y8644940D01*
X10869828Y8645296D01*
X10861700Y8641486D01*
X10854791Y8634679D01*
X10853674Y8631783D01*
X10820908Y8632799D01*
X10719562Y8632799D01*
X10714431Y8635796D01*
X10710367Y8640521D01*
X10708081Y8645448D01*
X10706658Y8652103D01*
X10706608Y8663635D01*
X10708132Y8670798D01*
X10711180Y8678519D01*
X10712145Y8679789D01*
X10719765Y8682634D01*
X10890707Y8683244D01*
X10899190Y8685276D01*
X10905744Y8688425D01*
X10913922Y8696147D01*
X10919104Y8703868D01*
X10923371Y8716010D01*
X10923981Y8810193D01*
X10981791Y8810345D01*
X10992256Y8812072D01*
X10998352Y8813901D01*
X11004956Y8817406D01*
X11009376Y8820607D01*
X11015014Y8827262D01*
X11018977Y8834526D01*
X11021669Y8843264D01*
X11022838Y8853728D01*
X11024057Y8925915D01*
X11023549Y9003030D01*
X11022736Y9008516D01*
X11019586Y9013088D01*
X11015421Y9015171D01*
X10985652Y9015476D01*
X10984230Y9015984D01*
X10986312Y9019032D01*
X10987125Y9021775D01*
X10988852Y9169146D01*
X10995609Y9172295D01*
X11001959Y9178696D01*
X11005515Y9185960D01*
X11005413Y9197848D01*
X11003940Y9202470D01*
X10999266Y9209633D01*
X10993882Y9213697D01*
X10988954Y9215831D01*
X10981537Y9217304D01*
X10974120Y9215831D01*
X10971326Y9214662D01*
X10965281Y9210598D01*
X10960709Y9205620D01*
X10957864Y9199422D01*
X10957864Y9189720D01*
X10971072Y9189720D01*
X10971072Y9195104D01*
X10972647Y9198051D01*
X10976305Y9201505D01*
X10978692Y9202775D01*
X10984585Y9202775D01*
X10988395Y9200438D01*
X10991443Y9196984D01*
X10993018Y9192310D01*
X10991342Y9187332D01*
X10986516Y9183065D01*
X10979912Y9181693D01*
X10976305Y9183116D01*
X10972647Y9186519D01*
X10971072Y9189720D01*
X10957864Y9189720D01*
X10957864Y9185554D01*
X10961166Y9178645D01*
X10968329Y9171940D01*
X10974679Y9168942D01*
X10974374Y9090101D01*
X10973257Y9053728D01*
X10973257Y9018371D01*
X10975492Y9016339D01*
X10975492Y9015425D01*
X10929721Y9015628D01*
X10927283Y9013393D01*
X10923727Y9010954D01*
X10919002Y9015222D01*
X10915700Y9017711D01*
X10911281Y9021775D01*
X10904677Y9027261D01*
X10869371Y9058148D01*
X10776204Y9137446D01*
X10728909Y9178086D01*
X10721746Y9184894D01*
X10715701Y9189821D01*
X10714278Y9191193D01*
X10703814Y9197238D01*
X10698480Y9197238D01*
X10694771Y9195714D01*
X10687050Y9190431D01*
X10661142Y9167317D01*
X10650118Y9157766D01*
X10608818Y9123222D01*
X10602772Y9117482D01*
X10598912Y9114332D01*
X10593933Y9109760D01*
X10581284Y9098889D01*
X10569143Y9089034D01*
X10563860Y9084056D01*
X10560862Y9082125D01*
X10560050Y9082125D01*
X10560050Y9085783D01*
X10557764Y9092844D01*
X10554258Y9099448D01*
X10545419Y9108389D01*
X10539222Y9111234D01*
X10530586Y9114180D01*
X10522864Y9115552D01*
X10514584Y9114129D01*
X10512145Y9113367D01*
X10512145Y9114383D01*
X10515447Y9116314D01*
X10528096Y9128760D01*
X10528096Y9130080D01*
X10532414Y9136481D01*
X10534853Y9140799D01*
X10538460Y9147962D01*
X10541203Y9154566D01*
X10545318Y9165590D01*
X10548518Y9175343D01*
X10549636Y9180982D01*
X10551160Y9194241D01*
X10550144Y9199575D01*
X10547959Y9203131D01*
X10544962Y9206128D01*
X10536631Y9204299D01*
X10524540Y9201251D01*
X10510723Y9196730D01*
X10503865Y9194038D01*
X10498632Y9190431D01*
X10490352Y9183776D01*
X10478262Y9171533D01*
X10468559Y9157919D01*
X10462412Y9145270D01*
X10459364Y9155125D01*
X10455859Y9163913D01*
X10451084Y9173464D01*
X10446359Y9180423D01*
X10434015Y9196425D01*
X10417606Y9208008D01*
X10405516Y9213951D01*
X10400538Y9215932D01*
X10393375Y9218218D01*
X10385653Y9220250D01*
X10379608Y9221520D01*
G37*
G36*
X10697311Y9060637D02*
G01*
X10690910Y9057995D01*
X10667441Y9047378D01*
X10666984Y9047378D01*
X10661142Y9044736D01*
X10649559Y9040114D01*
X10644632Y9038437D01*
X10637723Y9035288D01*
X10637215Y9035288D01*
X10630001Y9031986D01*
X10629493Y9031986D01*
X10618724Y9027109D01*
X10609935Y9023604D01*
X10588447Y9016695D01*
X10571886Y9012072D01*
X10565942Y9009888D01*
X10559237Y9006738D01*
X10555630Y9005366D01*
X10553598Y9002471D01*
X10553087Y8995562D01*
X10566704Y8995562D01*
X10567924Y8996273D01*
X10596676Y9004604D01*
X10611002Y9009329D01*
X10623143Y9013647D01*
X10635538Y9018727D01*
X10636656Y9018727D01*
X10645190Y9022486D01*
X10663072Y9029750D01*
X10663580Y9029750D01*
X10669422Y9032443D01*
X10674908Y9034627D01*
X10691977Y9042552D01*
X10696397Y9044279D01*
X10700258Y9046819D01*
X10700816Y9046819D01*
X10712399Y9040876D01*
X10719562Y9036913D01*
X10735513Y9029293D01*
X10744352Y9025788D01*
X10750143Y9023146D01*
X10750702Y9023146D01*
X10759592Y9019184D01*
X10768584Y9015933D01*
X10782909Y9011158D01*
X10812119Y9002318D01*
X10818723Y9000591D01*
X10833049Y8996273D01*
X10833404Y8884005D01*
X10832185Y8868206D01*
X10829950Y8857030D01*
X10827816Y8849309D01*
X10825429Y8842146D01*
X10820654Y8832240D01*
X10817860Y8827414D01*
X10812170Y8819032D01*
X10806176Y8811310D01*
X10789767Y8795105D01*
X10778490Y8786012D01*
X10777118Y8784640D01*
X10771886Y8780475D01*
X10770412Y8779052D01*
X10761421Y8772042D01*
X10747908Y8763050D01*
X10746435Y8762492D01*
X10746333Y8812428D01*
X10747502Y8862568D01*
X10749838Y8864396D01*
X10752632Y8865819D01*
X10776864Y8882329D01*
X10783519Y8888984D01*
X10784840Y8893505D01*
X10784840Y8910624D01*
X10791088Y8913164D01*
X10797794Y8919464D01*
X10801451Y8926830D01*
X10801400Y8937853D01*
X10800181Y8941866D01*
X10797794Y8946845D01*
X10792307Y8952382D01*
X10785652Y8955633D01*
X10774426Y8956040D01*
X10767466Y8953601D01*
X10764164Y8951315D01*
X10759795Y8946794D01*
X10756341Y8940241D01*
X10755020Y8934500D01*
X10755155Y8933789D01*
X10768736Y8933789D01*
X10770006Y8937701D01*
X10772343Y8940596D01*
X10777220Y8942730D01*
X10781284Y8942679D01*
X10784586Y8940901D01*
X10786567Y8939123D01*
X10788142Y8935415D01*
X10788142Y8931503D01*
X10785449Y8926931D01*
X10781030Y8923985D01*
X10776000Y8923985D01*
X10771733Y8926677D01*
X10769396Y8930436D01*
X10768736Y8933789D01*
X10755155Y8933789D01*
X10756290Y8928100D01*
X10757916Y8922359D01*
X10761116Y8917990D01*
X10766958Y8913672D01*
X10770514Y8911844D01*
X10770463Y8896146D01*
X10766958Y8893048D01*
X10751515Y8882278D01*
X10739475Y8875217D01*
X10734395Y8870238D01*
X10733125Y8865870D01*
X10732973Y8754008D01*
X10731246Y8752078D01*
X10730280Y8752078D01*
X10723016Y8747658D01*
X10722508Y8747658D01*
X10717682Y8744356D01*
X10717123Y8744356D01*
X10706608Y8738260D01*
X10706862Y8960053D01*
X10713466Y8963355D01*
X10720781Y8970518D01*
X10724337Y8978036D01*
X10723981Y8991447D01*
X10720527Y8998610D01*
X10714990Y9004249D01*
X10707420Y9007602D01*
X10702899Y9008821D01*
X10698937Y9008821D01*
X10693095Y9007246D01*
X10687812Y9005265D01*
X10682681Y9001353D01*
X10678210Y8995003D01*
X10676940Y8990888D01*
X10675569Y8983472D01*
X10676105Y8980678D01*
X10690098Y8980678D01*
X10690098Y8986824D01*
X10691622Y8989822D01*
X10695330Y8993276D01*
X10697718Y8994495D01*
X10703560Y8994444D01*
X10705795Y8993276D01*
X10709452Y8989822D01*
X10711027Y8986824D01*
X10711027Y8981236D01*
X10709452Y8978239D01*
X10706354Y8975344D01*
X10702798Y8973566D01*
X10697210Y8973566D01*
X10694771Y8974937D01*
X10691622Y8977680D01*
X10690098Y8980678D01*
X10676105Y8980678D01*
X10676991Y8976055D01*
X10680446Y8968994D01*
X10686237Y8963710D01*
X10692536Y8960662D01*
X10693298Y8959596D01*
X10693450Y8737193D01*
X10692790Y8737193D01*
X10672724Y8750757D01*
X10668050Y8752840D01*
X10667441Y8754668D01*
X10666476Y8786520D01*
X10667034Y8866936D01*
X10665256Y8871102D01*
X10662056Y8874099D01*
X10654792Y8878519D01*
X10637469Y8889949D01*
X10629646Y8895791D01*
X10628884Y8906357D01*
X10628223Y8911183D01*
X10635538Y8914688D01*
X10641380Y8920378D01*
X10643362Y8924696D01*
X10644886Y8931960D01*
X10644886Y8936380D01*
X10643362Y8942070D01*
X10640263Y8947759D01*
X10634726Y8952788D01*
X10627563Y8956141D01*
X10616539Y8956090D01*
X10608818Y8952585D01*
X10604042Y8947962D01*
X10600994Y8943543D01*
X10598607Y8936837D01*
X10598607Y8932824D01*
X10611713Y8932824D01*
X10613085Y8937752D01*
X10616234Y8941054D01*
X10620248Y8942730D01*
X10623702Y8942628D01*
X10627512Y8941257D01*
X10630509Y8937498D01*
X10631881Y8932367D01*
X10630458Y8928963D01*
X10627563Y8926017D01*
X10624261Y8923985D01*
X10619486Y8923985D01*
X10616539Y8925509D01*
X10613136Y8929217D01*
X10611713Y8932824D01*
X10598607Y8932824D01*
X10598607Y8929116D01*
X10600893Y8922207D01*
X10603433Y8918194D01*
X10608360Y8913622D01*
X10615015Y8910828D01*
X10615422Y8892844D01*
X10618520Y8886545D01*
X10623702Y8882329D01*
X10649762Y8864447D01*
X10650778Y8864447D01*
X10653217Y8861856D01*
X10652912Y8762542D01*
X10652099Y8762542D01*
X10636910Y8773261D01*
X10628630Y8779865D01*
X10628122Y8780475D01*
X10623143Y8784234D01*
X10606633Y8798610D01*
X10599013Y8806332D01*
X10588650Y8819337D01*
X10583316Y8827262D01*
X10572394Y8848242D01*
X10570718Y8856167D01*
X10568279Y8875217D01*
X10567162Y8893403D01*
X10566704Y8995562D01*
X10553087Y8995562D01*
X10552633Y8988704D01*
X10553446Y8868054D01*
X10554665Y8858707D01*
X10558018Y8845499D01*
X10561015Y8838285D01*
X10566857Y8826195D01*
X10573461Y8815171D01*
X10581284Y8804859D01*
X10585551Y8798610D01*
X10596473Y8787892D01*
X10613593Y8773312D01*
X10634980Y8757310D01*
X10645089Y8750147D01*
X10646054Y8749741D01*
X10661700Y8740038D01*
X10672724Y8732926D01*
X10682681Y8726881D01*
X10690910Y8722512D01*
X10697565Y8720124D01*
X10703306Y8720124D01*
X10710214Y8723274D01*
X10734446Y8737854D01*
X10744809Y8743543D01*
X10758728Y8752992D01*
X10789970Y8776411D01*
X10811611Y8795004D01*
X10825429Y8811869D01*
X10833506Y8823909D01*
X10837722Y8832951D01*
X10837722Y8834120D01*
X10841075Y8841435D01*
X10844225Y8851544D01*
X10845393Y8857589D01*
X10846511Y8869730D01*
X10847781Y8981541D01*
X10847222Y8997543D01*
X10846663Y9003131D01*
X10845190Y9005519D01*
X10840516Y9007703D01*
X10839399Y9007703D01*
X10832338Y9010954D01*
X10822025Y9014358D01*
X10809376Y9017711D01*
X10777423Y9028074D01*
X10764164Y9033357D01*
X10742320Y9042958D01*
X10741863Y9042958D01*
X10704677Y9060535D01*
G37*
M02*
